<?xml version="1.0" encoding="utf-8" standalone="no"?>
<!DOCTYPE svg PUBLIC "-//W3C//DTD SVG 1.1//EN"
  "http://www.w3.org/Graphics/SVG/1.1/DTD/svg11.dtd">
<svg xmlns:xlink="http://www.w3.org/1999/xlink" width="272.711406pt" height="214.266pt" viewBox="0 0 272.711406 214.266" xmlns="http://www.w3.org/2000/svg" version="1.1">
 <metadata>
  <rdf:RDF xmlns:dc="http://purl.org/dc/elements/1.1/" xmlns:cc="http://creativecommons.org/ns#" xmlns:rdf="http://www.w3.org/1999/02/22-rdf-syntax-ns#">
   <cc:Work>
    <dc:type rdf:resource="http://purl.org/dc/dcmitype/StillImage"/>
    <dc:format>image/svg+xml</dc:format>
    <dc:creator>
     <cc:Agent>
      <dc:title>Matplotlib v3.10.9, https://matplotlib.org/</dc:title>
     </cc:Agent>
    </dc:creator>
   </cc:Work>
  </rdf:RDF>
 </metadata>
 <defs>
  <style type="text/css">*{stroke-linejoin: round; stroke-linecap: butt}</style>
 </defs>
 <g id="figure_1">
  <g id="patch_1">
   <path d="M 0 214.266 
L 272.711406 214.266 
L 272.711406 0 
L 0 0 
z
" style="fill: #ffffff"/>
  </g>
  <g id="axes_1">
   <g id="patch_2">
    <path d="M 34.951406 182.386937 
L 265.511406 182.386937 
L 265.511406 27.696 
L 34.951406 27.696 
z
" style="fill: #ffffff"/>
   </g>
   <g id="PathCollection_1"/>
   <g id="PathCollection_2"/>
   <g id="PathCollection_3"/>
   <g id="PathCollection_4"/>
   <g id="matplotlib.axis_1">
    <g id="xtick_1">
     <g id="line2d_1">
      <defs>
       <path id="m55937b366f" d="M 0 0 
L 0 2 
" style="stroke: #000000; stroke-width: 0.8"/>
      </defs>
      <g>
       <use xlink:href="#m55937b366f" x="43.047546" y="182.386937" style="stroke: #000000; stroke-width: 0.8"/>
      </g>
     </g>
     <g id="text_1">
      <!-- $\mathdefault{10^{0}}$ -->
      <g transform="translate(37.552546 195.105687)">
       <text>
        <tspan x="0" y="-0.599563" style="font-size: 7px; font-family: 'Arial'">1</tspan>
        <tspan x="3.893066" y="-0.599563" style="font-size: 7px; font-family: 'Arial'">0</tspan>
        <tspan x="7.908097" y="-5.478125" style="font-size: 4.9px; font-family: 'Arial'">0</tspan>
       </text>
      </g>
     </g>
    </g>
    <g id="xtick_2">
     <g id="line2d_2">
      <g>
       <use xlink:href="#m55937b366f" x="158.769387" y="182.386937" style="stroke: #000000; stroke-width: 0.8"/>
      </g>
     </g>
     <g id="text_2">
      <!-- $\mathdefault{10^{1}}$ -->
      <g transform="translate(153.274387 195.105687)">
       <text>
        <tspan x="0" y="-0.599563" style="font-size: 7px; font-family: 'Arial'">1</tspan>
        <tspan x="3.893066" y="-0.599563" style="font-size: 7px; font-family: 'Arial'">0</tspan>
        <tspan x="7.908097" y="-5.478125" style="font-size: 4.9px; font-family: 'Arial'">1</tspan>
       </text>
      </g>
     </g>
    </g>
    <g id="xtick_3">
     <g id="line2d_3">
      <defs>
       <path id="mfdb3471361" d="M 0 0 
L 0 2 
" style="stroke: #000000; stroke-width: 0.6"/>
      </defs>
      <g>
       <use xlink:href="#mfdb3471361" x="37.752405" y="182.386937" style="stroke: #000000; stroke-width: 0.6"/>
      </g>
     </g>
    </g>
    <g id="xtick_4">
     <g id="line2d_4">
      <g>
       <use xlink:href="#mfdb3471361" x="77.883292" y="182.386937" style="stroke: #000000; stroke-width: 0.6"/>
      </g>
     </g>
    </g>
    <g id="xtick_5">
     <g id="line2d_5">
      <g>
       <use xlink:href="#mfdb3471361" x="98.260896" y="182.386937" style="stroke: #000000; stroke-width: 0.6"/>
      </g>
     </g>
    </g>
    <g id="xtick_6">
     <g id="line2d_6">
      <g>
       <use xlink:href="#mfdb3471361" x="112.719037" y="182.386937" style="stroke: #000000; stroke-width: 0.6"/>
      </g>
     </g>
    </g>
    <g id="xtick_7">
     <g id="line2d_7">
      <g>
       <use xlink:href="#mfdb3471361" x="123.933642" y="182.386937" style="stroke: #000000; stroke-width: 0.6"/>
      </g>
     </g>
    </g>
    <g id="xtick_8">
     <g id="line2d_8">
      <g>
       <use xlink:href="#mfdb3471361" x="133.096641" y="182.386937" style="stroke: #000000; stroke-width: 0.6"/>
      </g>
     </g>
    </g>
    <g id="xtick_9">
     <g id="line2d_9">
      <g>
       <use xlink:href="#mfdb3471361" x="140.843847" y="182.386937" style="stroke: #000000; stroke-width: 0.6"/>
      </g>
     </g>
    </g>
    <g id="xtick_10">
     <g id="line2d_10">
      <g>
       <use xlink:href="#mfdb3471361" x="147.554782" y="182.386937" style="stroke: #000000; stroke-width: 0.6"/>
      </g>
     </g>
    </g>
    <g id="xtick_11">
     <g id="line2d_11">
      <g>
       <use xlink:href="#mfdb3471361" x="153.474246" y="182.386937" style="stroke: #000000; stroke-width: 0.6"/>
      </g>
     </g>
    </g>
    <g id="xtick_12">
     <g id="line2d_12">
      <g>
       <use xlink:href="#mfdb3471361" x="193.605132" y="182.386937" style="stroke: #000000; stroke-width: 0.6"/>
      </g>
     </g>
    </g>
    <g id="xtick_13">
     <g id="line2d_13">
      <g>
       <use xlink:href="#mfdb3471361" x="213.982737" y="182.386937" style="stroke: #000000; stroke-width: 0.6"/>
      </g>
     </g>
    </g>
    <g id="xtick_14">
     <g id="line2d_14">
      <g>
       <use xlink:href="#mfdb3471361" x="228.440877" y="182.386937" style="stroke: #000000; stroke-width: 0.6"/>
      </g>
     </g>
    </g>
    <g id="xtick_15">
     <g id="line2d_15">
      <g>
       <use xlink:href="#mfdb3471361" x="239.655482" y="182.386937" style="stroke: #000000; stroke-width: 0.6"/>
      </g>
     </g>
    </g>
    <g id="xtick_16">
     <g id="line2d_16">
      <g>
       <use xlink:href="#mfdb3471361" x="248.818482" y="182.386937" style="stroke: #000000; stroke-width: 0.6"/>
      </g>
     </g>
    </g>
    <g id="xtick_17">
     <g id="line2d_17">
      <g>
       <use xlink:href="#mfdb3471361" x="256.565687" y="182.386937" style="stroke: #000000; stroke-width: 0.6"/>
      </g>
     </g>
    </g>
    <g id="xtick_18">
     <g id="line2d_18">
      <g>
       <use xlink:href="#mfdb3471361" x="263.276622" y="182.386937" style="stroke: #000000; stroke-width: 0.6"/>
      </g>
     </g>
    </g>
    <g id="text_3">
     <text style="font-size: 7px; font-family: 'Arial', 'Helvetica', 'DejaVu Sans', sans-serif; text-anchor: middle" x="150.231406" y="205.592719" transform="rotate(-0 150.231406 205.592719)">weight size K·N (M params)</text>
    </g>
   </g>
   <g id="matplotlib.axis_2">
    <g id="ytick_1">
     <g id="line2d_19">
      <defs>
       <path id="m2c9191b4d4" d="M 0 0 
L -2 0 
" style="stroke: #000000; stroke-width: 0.8"/>
      </defs>
      <g>
       <use xlink:href="#m2c9191b4d4" x="34.951406" y="166.226997" style="stroke: #000000; stroke-width: 0.8"/>
      </g>
     </g>
     <g id="text_4">
      <text style="font-size: 7px; font-family: 'Arial', 'Helvetica', 'DejaVu Sans', sans-serif; text-anchor: end" x="29.451406" y="168.732232" transform="rotate(-0 29.451406 168.732232)">120</text>
     </g>
    </g>
    <g id="ytick_2">
     <g id="line2d_20">
      <g>
       <use xlink:href="#m2c9191b4d4" x="34.951406" y="141.693394" style="stroke: #000000; stroke-width: 0.8"/>
      </g>
     </g>
     <g id="text_5">
      <text style="font-size: 7px; font-family: 'Arial', 'Helvetica', 'DejaVu Sans', sans-serif; text-anchor: end" x="29.451406" y="144.198629" transform="rotate(-0 29.451406 144.198629)">140</text>
     </g>
    </g>
    <g id="ytick_3">
     <g id="line2d_21">
      <g>
       <use xlink:href="#m2c9191b4d4" x="34.951406" y="117.159791" style="stroke: #000000; stroke-width: 0.8"/>
      </g>
     </g>
     <g id="text_6">
      <text style="font-size: 7px; font-family: 'Arial', 'Helvetica', 'DejaVu Sans', sans-serif; text-anchor: end" x="29.451406" y="119.665026" transform="rotate(-0 29.451406 119.665026)">160</text>
     </g>
    </g>
    <g id="ytick_4">
     <g id="line2d_22">
      <g>
       <use xlink:href="#m2c9191b4d4" x="34.951406" y="92.626189" style="stroke: #000000; stroke-width: 0.8"/>
      </g>
     </g>
     <g id="text_7">
      <text style="font-size: 7px; font-family: 'Arial', 'Helvetica', 'DejaVu Sans', sans-serif; text-anchor: end" x="29.451406" y="95.131423" transform="rotate(-0 29.451406 95.131423)">180</text>
     </g>
    </g>
    <g id="ytick_5">
     <g id="line2d_23">
      <g>
       <use xlink:href="#m2c9191b4d4" x="34.951406" y="68.092586" style="stroke: #000000; stroke-width: 0.8"/>
      </g>
     </g>
     <g id="text_8">
      <text style="font-size: 7px; font-family: 'Arial', 'Helvetica', 'DejaVu Sans', sans-serif; text-anchor: end" x="29.451406" y="70.59782" transform="rotate(-0 29.451406 70.59782)">200</text>
     </g>
    </g>
    <g id="ytick_6">
     <g id="line2d_24">
      <g>
       <use xlink:href="#m2c9191b4d4" x="34.951406" y="43.558983" style="stroke: #000000; stroke-width: 0.8"/>
      </g>
     </g>
     <g id="text_9">
      <text style="font-size: 7px; font-family: 'Arial', 'Helvetica', 'DejaVu Sans', sans-serif; text-anchor: end" x="29.451406" y="46.064217" transform="rotate(-0 29.451406 46.064217)">220</text>
     </g>
    </g>
    <g id="text_10">
     <text style="font-size: 7px; font-family: 'Arial', 'Helvetica', 'DejaVu Sans', sans-serif; text-anchor: middle" x="12.300156" y="105.041469" transform="rotate(-90 12.300156 105.041469)">CIM device throughput (GFLOP/s)</text>
    </g>
   </g>
   <g id="patch_3">
    <path d="M 34.951406 182.386937 
L 34.951406 27.696 
" style="fill: none; stroke: #000000; stroke-width: 0.8; stroke-linejoin: miter; stroke-linecap: square"/>
   </g>
   <g id="patch_4">
    <path d="M 34.951406 182.386937 
L 265.511406 182.386937 
" style="fill: none; stroke: #000000; stroke-width: 0.8; stroke-linejoin: miter; stroke-linecap: square"/>
   </g>
   <g id="PathCollection_5">
    <defs>
     <path id="m1b7a0b44b9" d="M 0 2.236068 
C 0.593012 2.236068 1.161816 2.000462 1.581139 1.581139 
C 2.000462 1.161816 2.236068 0.593012 2.236068 0 
C 2.236068 -0.593012 2.000462 -1.161816 1.581139 -1.581139 
C 1.161816 -2.000462 0.593012 -2.236068 0 -2.236068 
C -0.593012 -2.236068 -1.161816 -2.000462 -1.581139 -1.581139 
C -2.000462 -1.161816 -2.236068 -0.593012 -2.236068 0 
C -2.236068 0.593012 -2.000462 1.161816 -1.581139 1.581139 
C -1.161816 2.000462 -0.593012 2.236068 0 2.236068 
z
" style="stroke: #ffffff; stroke-width: 0.3"/>
    </defs>
    <g clip-path="url(#p1a6402b27d)">
     <use xlink:href="#m1b7a0b44b9" x="115.102897" y="63.741482" style="fill: #0072b2; stroke: #ffffff; stroke-width: 0.3"/>
    </g>
   </g>
   <g id="PathCollection_6">
    <defs>
     <path id="mbd31bde55e" d="M 0 2.236068 
C 0.593012 2.236068 1.161816 2.000462 1.581139 1.581139 
C 2.000462 1.161816 2.236068 0.593012 2.236068 0 
C 2.236068 -0.593012 2.000462 -1.161816 1.581139 -1.581139 
C 1.161816 -2.000462 0.593012 -2.236068 0 -2.236068 
C -0.593012 -2.236068 -1.161816 -2.000462 -1.581139 -1.581139 
C -2.000462 -1.161816 -2.236068 -0.593012 -2.236068 0 
C -2.236068 0.593012 -2.000462 1.161816 -1.581139 1.581139 
C -1.161816 2.000462 -0.593012 2.236068 0 2.236068 
z
" style="stroke: #ffffff; stroke-width: 0.3"/>
    </defs>
    <g clip-path="url(#p1a6402b27d)">
     <use xlink:href="#mbd31bde55e" x="45.431406" y="175.355531" style="fill: #d55e00; stroke: #ffffff; stroke-width: 0.3"/>
    </g>
   </g>
   <g id="PathCollection_7">
    <g clip-path="url(#p1a6402b27d)">
     <use xlink:href="#mbd31bde55e" x="100.644756" y="89.84422" style="fill: #d55e00; stroke: #ffffff; stroke-width: 0.3"/>
    </g>
   </g>
   <g id="PathCollection_8">
    <defs>
     <path id="m18db4141c3" d="M 0 2.236068 
C 0.593012 2.236068 1.161816 2.000462 1.581139 1.581139 
C 2.000462 1.161816 2.236068 0.593012 2.236068 0 
C 2.236068 -0.593012 2.000462 -1.161816 1.581139 -1.581139 
C 1.161816 -2.000462 0.593012 -2.236068 0 -2.236068 
C -0.593012 -2.236068 -1.161816 -2.000462 -1.581139 -1.581139 
C -2.000462 -1.161816 -2.236068 -0.593012 -2.236068 0 
C -2.236068 0.593012 -2.000462 1.161816 -1.581139 1.581139 
C -1.161816 2.000462 -0.593012 2.236068 0 2.236068 
z
" style="stroke: #ffffff; stroke-width: 0.3"/>
    </defs>
    <g clip-path="url(#p1a6402b27d)">
     <use xlink:href="#m18db4141c3" x="184.774387" y="63.67048" style="fill: #009e73; stroke: #ffffff; stroke-width: 0.3"/>
    </g>
   </g>
   <g id="PathCollection_9">
    <defs>
     <path id="mefb9df3606" d="M 0 2.236068 
C 0.593012 2.236068 1.161816 2.000462 1.581139 1.581139 
C 2.000462 1.161816 2.236068 0.593012 2.236068 0 
C 2.236068 -0.593012 2.000462 -1.161816 1.581139 -1.581139 
C 1.161816 -2.000462 0.593012 -2.236068 0 -2.236068 
C -0.593012 -2.236068 -1.161816 -2.000462 -1.581139 -1.581139 
C -2.000462 -1.161816 -2.236068 -0.593012 -2.236068 0 
C -2.236068 0.593012 -2.000462 1.161816 -1.581139 1.581139 
C -1.161816 2.000462 -0.593012 2.236068 0 2.236068 
z
" style="stroke: #ffffff; stroke-width: 0.3"/>
    </defs>
    <g clip-path="url(#p1a6402b27d)">
     <use xlink:href="#mefb9df3606" x="184.774387" y="63.67048" style="fill: #999999; stroke: #ffffff; stroke-width: 0.3"/>
    </g>
   </g>
   <g id="PathCollection_10">
    <g clip-path="url(#p1a6402b27d)">
     <use xlink:href="#m1b7a0b44b9" x="155.858106" y="172.939664" style="fill: #0072b2; stroke: #ffffff; stroke-width: 0.3"/>
    </g>
   </g>
   <g id="PathCollection_11">
    <g clip-path="url(#p1a6402b27d)">
     <use xlink:href="#m18db4141c3" x="205.151991" y="126.110014" style="fill: #009e73; stroke: #ffffff; stroke-width: 0.3"/>
    </g>
   </g>
   <g id="PathCollection_12">
    <g clip-path="url(#p1a6402b27d)">
     <use xlink:href="#mefb9df3606" x="205.151991" y="126.110014" style="fill: #999999; stroke: #ffffff; stroke-width: 0.3"/>
    </g>
   </g>
   <g id="PathCollection_13">
    <g clip-path="url(#p1a6402b27d)">
     <use xlink:href="#m1b7a0b44b9" x="184.774387" y="63.67048" style="fill: #0072b2; stroke: #ffffff; stroke-width: 0.3"/>
    </g>
   </g>
   <g id="PathCollection_14">
    <g clip-path="url(#p1a6402b27d)">
     <use xlink:href="#mbd31bde55e" x="115.102897" y="34.727406" style="fill: #d55e00; stroke: #ffffff; stroke-width: 0.3"/>
    </g>
   </g>
   <g id="PathCollection_15">
    <g clip-path="url(#p1a6402b27d)">
     <use xlink:href="#m18db4141c3" x="247.734942" y="63.67048" style="fill: #009e73; stroke: #ffffff; stroke-width: 0.3"/>
    </g>
   </g>
   <g id="PathCollection_16">
    <g clip-path="url(#p1a6402b27d)">
     <use xlink:href="#mefb9df3606" x="247.734942" y="63.67048" style="fill: #999999; stroke: #ffffff; stroke-width: 0.3"/>
    </g>
   </g>
   <g id="PathCollection_17">
    <g clip-path="url(#p1a6402b27d)">
     <use xlink:href="#m1b7a0b44b9" x="171.352517" y="122.207543" style="fill: #0072b2; stroke: #ffffff; stroke-width: 0.3"/>
    </g>
   </g>
   <g id="PathCollection_18">
    <g clip-path="url(#p1a6402b27d)">
     <use xlink:href="#mbd31bde55e" x="73.556217" y="132.652034" style="fill: #d55e00; stroke: #ffffff; stroke-width: 0.3"/>
    </g>
   </g>
   <g id="PathCollection_19">
    <g clip-path="url(#p1a6402b27d)">
     <use xlink:href="#m18db4141c3" x="255.031406" y="111.280624" style="fill: #009e73; stroke: #ffffff; stroke-width: 0.3"/>
    </g>
   </g>
   <g id="PathCollection_20">
    <g clip-path="url(#p1a6402b27d)">
     <use xlink:href="#mefb9df3606" x="255.031406" y="111.280624" style="fill: #999999; stroke: #ffffff; stroke-width: 0.3"/>
    </g>
   </g>
   <g id="text_11">
    <text style="font-size: 8px; font-family: 'Arial', 'Helvetica', 'DejaVu Sans', sans-serif" transform="translate(71.867656 13.02375)">CIM matmul throughput vs op (decode M=1)</text>
    <text style="font-size: 8px; font-family: 'Arial', 'Helvetica', 'DejaVu Sans', sans-serif" transform="translate(100.503906 21.696)">tiled ops amortise differently</text>
   </g>
   <g id="legend_1">
    <g id="text_12">
     <text style="font-size: 7px; font-family: 'Arial', 'Helvetica', 'DejaVu Sans', sans-serif; text-anchor: start" x="46.473438" y="38.556469" transform="rotate(-0 46.473438 38.556469)">projection</text>
    </g>
    <g id="PathCollection_21">
     <defs>
      <path id="m5c7cbb2fac" d="M 0 3 
C 0.795609 3 1.55874 2.683901 2.12132 2.12132 
C 2.683901 1.55874 3 0.795609 3 0 
C 3 -0.795609 2.683901 -1.55874 2.12132 -2.12132 
C 1.55874 -2.683901 0.795609 -3 0 -3 
C -0.795609 -3 -1.55874 -2.683901 -2.12132 -2.12132 
C -2.683901 -1.55874 -3 -0.795609 -3 0 
C -3 0.795609 -2.683901 1.55874 -2.12132 2.12132 
C -1.55874 2.683901 -0.795609 3 0 3 
z
" style="stroke: #0072b2"/>
     </defs>
     <g>
      <use xlink:href="#m5c7cbb2fac" x="47.301406" y="46.226078" style="fill: #0072b2; stroke: #0072b2"/>
     </g>
    </g>
    <g id="text_13">
     <text style="font-size: 6.5px; font-family: 'Arial', 'Helvetica', 'DejaVu Sans', sans-serif; text-anchor: start" x="59.001406" y="47.932328" transform="rotate(-0 59.001406 47.932328)">q_o</text>
    </g>
    <g id="PathCollection_22">
     <defs>
      <path id="m233679d89f" d="M 0 3 
C 0.795609 3 1.55874 2.683901 2.12132 2.12132 
C 2.683901 1.55874 3 0.795609 3 0 
C 3 -0.795609 2.683901 -1.55874 2.12132 -2.12132 
C 1.55874 -2.683901 0.795609 -3 0 -3 
C -0.795609 -3 -1.55874 -2.683901 -2.12132 -2.12132 
C -2.683901 -1.55874 -3 -0.795609 -3 0 
C -3 0.795609 -2.683901 1.55874 -2.12132 2.12132 
C -1.55874 2.683901 -0.795609 3 0 3 
z
" style="stroke: #d55e00"/>
     </defs>
     <g>
      <use xlink:href="#m233679d89f" x="47.301406" y="55.420531" style="fill: #d55e00; stroke: #d55e00"/>
     </g>
    </g>
    <g id="text_14">
     <text style="font-size: 6.5px; font-family: 'Arial', 'Helvetica', 'DejaVu Sans', sans-serif; text-anchor: start" x="59.001406" y="57.126781" transform="rotate(-0 59.001406 57.126781)">kv</text>
    </g>
    <g id="PathCollection_23">
     <defs>
      <path id="m36b099e5e7" d="M 0 3 
C 0.795609 3 1.55874 2.683901 2.12132 2.12132 
C 2.683901 1.55874 3 0.795609 3 0 
C 3 -0.795609 2.683901 -1.55874 2.12132 -2.12132 
C 1.55874 -2.683901 0.795609 -3 0 -3 
C -0.795609 -3 -1.55874 -2.683901 -2.12132 -2.12132 
C -2.683901 -1.55874 -3 -0.795609 -3 0 
C -3 0.795609 -2.683901 1.55874 -2.12132 2.12132 
C -1.55874 2.683901 -0.795609 3 0 3 
z
" style="stroke: #009e73"/>
     </defs>
     <g>
      <use xlink:href="#m36b099e5e7" x="47.301406" y="64.614984" style="fill: #009e73; stroke: #009e73"/>
     </g>
    </g>
    <g id="text_15">
     <text style="font-size: 6.5px; font-family: 'Arial', 'Helvetica', 'DejaVu Sans', sans-serif; text-anchor: start" x="59.001406" y="66.321234" transform="rotate(-0 59.001406 66.321234)">gate_up</text>
    </g>
    <g id="PathCollection_24">
     <defs>
      <path id="m8456bae965" d="M 0 3 
C 0.795609 3 1.55874 2.683901 2.12132 2.12132 
C 2.683901 1.55874 3 0.795609 3 0 
C 3 -0.795609 2.683901 -1.55874 2.12132 -2.12132 
C 1.55874 -2.683901 0.795609 -3 0 -3 
C -0.795609 -3 -1.55874 -2.683901 -2.12132 -2.12132 
C -2.683901 -1.55874 -3 -0.795609 -3 0 
C -3 0.795609 -2.683901 1.55874 -2.12132 2.12132 
C -1.55874 2.683901 -0.795609 3 0 3 
z
" style="stroke: #999999"/>
     </defs>
     <g>
      <use xlink:href="#m8456bae965" x="47.301406" y="73.885609" style="fill: #999999; stroke: #999999"/>
     </g>
    </g>
    <g id="text_16">
     <text style="font-size: 6.5px; font-family: 'Arial', 'Helvetica', 'DejaVu Sans', sans-serif; text-anchor: start" x="59.001406" y="75.591859" transform="rotate(-0 59.001406 75.591859)">down</text>
    </g>
   </g>
  </g>
 </g>
 <defs>
  <clipPath id="p1a6402b27d">
   <rect x="34.951406" y="27.696" width="230.56" height="154.690937"/>
  </clipPath>
 </defs>
</svg>
