<?xml version="1.0" encoding="utf-8" standalone="no"?>
<!DOCTYPE svg PUBLIC "-//W3C//DTD SVG 1.1//EN"
  "http://www.w3.org/Graphics/SVG/1.1/DTD/svg11.dtd">
<svg xmlns:xlink="http://www.w3.org/1999/xlink" width="243.914375pt" height="214.071984pt" viewBox="0 0 243.914375 214.071984" xmlns="http://www.w3.org/2000/svg" version="1.1">
 <metadata>
  <rdf:RDF xmlns:dc="http://purl.org/dc/elements/1.1/" xmlns:cc="http://creativecommons.org/ns#" xmlns:rdf="http://www.w3.org/1999/02/22-rdf-syntax-ns#">
   <cc:Work>
    <dc:type rdf:resource="http://purl.org/dc/dcmitype/StillImage"/>
    <dc:format>image/svg+xml</dc:format>
    <dc:creator>
     <cc:Agent>
      <dc:title>Matplotlib v3.10.9, https://matplotlib.org/</dc:title>
     </cc:Agent>
    </dc:creator>
   </cc:Work>
  </rdf:RDF>
 </metadata>
 <defs>
  <style type="text/css">*{stroke-linejoin: round; stroke-linecap: butt}</style>
 </defs>
 <g id="figure_1">
  <g id="patch_1">
   <path d="M 0 214.071984 
L 243.914375 214.071984 
L 243.914375 0 
L 0 0 
z
" style="fill: #ffffff"/>
  </g>
  <g id="axes_1">
   <g id="patch_2">
    <path d="M 31.054375 184.401203 
L 236.714375 184.401203 
L 236.714375 26.610703 
L 31.054375 26.610703 
z
" style="fill: #ffffff"/>
   </g>
   <g id="matplotlib.axis_1">
    <g id="xtick_1">
     <g id="line2d_1">
      <defs>
       <path id="m8c3ecb57a3" d="M 0 0 
L 0 2 
" style="stroke: #000000; stroke-width: 0.8"/>
      </defs>
      <g>
       <use xlink:href="#m8c3ecb57a3" x="37.4665" y="184.401203" style="stroke: #000000; stroke-width: 0.8"/>
      </g>
     </g>
     <g id="text_1">
      <text style="font-size: 7px; font-family: 'Arial', 'Helvetica', 'DejaVu Sans', sans-serif; text-anchor: middle" x="37.4665" y="194.911672" transform="rotate(-0 37.4665 194.911672)">1</text>
     </g>
    </g>
    <g id="xtick_2">
     <g id="line2d_2">
      <g>
       <use xlink:href="#m8c3ecb57a3" x="63.641061" y="184.401203" style="stroke: #000000; stroke-width: 0.8"/>
      </g>
     </g>
     <g id="text_2">
      <text style="font-size: 7px; font-family: 'Arial', 'Helvetica', 'DejaVu Sans', sans-serif; text-anchor: middle" x="63.641061" y="194.911672" transform="rotate(-0 63.641061 194.911672)">2</text>
     </g>
    </g>
    <g id="xtick_3">
     <g id="line2d_3">
      <g>
       <use xlink:href="#m8c3ecb57a3" x="89.815622" y="184.401203" style="stroke: #000000; stroke-width: 0.8"/>
      </g>
     </g>
     <g id="text_3">
      <text style="font-size: 7px; font-family: 'Arial', 'Helvetica', 'DejaVu Sans', sans-serif; text-anchor: middle" x="89.815622" y="194.911672" transform="rotate(-0 89.815622 194.911672)">3</text>
     </g>
    </g>
    <g id="xtick_4">
     <g id="line2d_4">
      <g>
       <use xlink:href="#m8c3ecb57a3" x="115.990183" y="184.401203" style="stroke: #000000; stroke-width: 0.8"/>
      </g>
     </g>
     <g id="text_4">
      <text style="font-size: 7px; font-family: 'Arial', 'Helvetica', 'DejaVu Sans', sans-serif; text-anchor: middle" x="115.990183" y="194.911672" transform="rotate(-0 115.990183 194.911672)">4</text>
     </g>
    </g>
    <g id="xtick_5">
     <g id="line2d_5">
      <g>
       <use xlink:href="#m8c3ecb57a3" x="142.164744" y="184.401203" style="stroke: #000000; stroke-width: 0.8"/>
      </g>
     </g>
     <g id="text_5">
      <text style="font-size: 7px; font-family: 'Arial', 'Helvetica', 'DejaVu Sans', sans-serif; text-anchor: middle" x="142.164744" y="194.911672" transform="rotate(-0 142.164744 194.911672)">5</text>
     </g>
    </g>
    <g id="xtick_6">
     <g id="line2d_6">
      <g>
       <use xlink:href="#m8c3ecb57a3" x="168.339305" y="184.401203" style="stroke: #000000; stroke-width: 0.8"/>
      </g>
     </g>
     <g id="text_6">
      <text style="font-size: 7px; font-family: 'Arial', 'Helvetica', 'DejaVu Sans', sans-serif; text-anchor: middle" x="168.339305" y="194.911672" transform="rotate(-0 168.339305 194.911672)">6</text>
     </g>
    </g>
    <g id="xtick_7">
     <g id="line2d_7">
      <g>
       <use xlink:href="#m8c3ecb57a3" x="194.513866" y="184.401203" style="stroke: #000000; stroke-width: 0.8"/>
      </g>
     </g>
     <g id="text_7">
      <text style="font-size: 7px; font-family: 'Arial', 'Helvetica', 'DejaVu Sans', sans-serif; text-anchor: middle" x="194.513866" y="194.911672" transform="rotate(-0 194.513866 194.911672)">7</text>
     </g>
    </g>
    <g id="xtick_8">
     <g id="line2d_8">
      <g>
       <use xlink:href="#m8c3ecb57a3" x="220.688427" y="184.401203" style="stroke: #000000; stroke-width: 0.8"/>
      </g>
     </g>
     <g id="text_8">
      <text style="font-size: 7px; font-family: 'Arial', 'Helvetica', 'DejaVu Sans', sans-serif; text-anchor: middle" x="220.688427" y="194.911672" transform="rotate(-0 220.688427 194.911672)">8</text>
     </g>
    </g>
    <g id="text_9">
     <text style="font-size: 7px; font-family: 'Arial', 'Helvetica', 'DejaVu Sans', sans-serif; text-anchor: middle" x="133.884375" y="205.398703" transform="rotate(-0 133.884375 205.398703)">model weight bytes (GB, INT8)</text>
    </g>
   </g>
   <g id="matplotlib.axis_2">
    <g id="ytick_1">
     <g id="line2d_9">
      <defs>
       <path id="mb0ec5ec3d0" d="M 0 0 
L -2 0 
" style="stroke: #000000; stroke-width: 0.8"/>
      </defs>
      <g>
       <use xlink:href="#mb0ec5ec3d0" x="31.054375" y="179.435265" style="stroke: #000000; stroke-width: 0.8"/>
      </g>
     </g>
     <g id="text_10">
      <text style="font-size: 7px; font-family: 'Arial', 'Helvetica', 'DejaVu Sans', sans-serif; text-anchor: end" x="25.554375" y="181.9405" transform="rotate(-0 25.554375 181.9405)">2</text>
     </g>
    </g>
    <g id="ytick_2">
     <g id="line2d_10">
      <g>
       <use xlink:href="#mb0ec5ec3d0" x="31.054375" y="159.306804" style="stroke: #000000; stroke-width: 0.8"/>
      </g>
     </g>
     <g id="text_11">
      <text style="font-size: 7px; font-family: 'Arial', 'Helvetica', 'DejaVu Sans', sans-serif; text-anchor: end" x="25.554375" y="161.812038" transform="rotate(-0 25.554375 161.812038)">4</text>
     </g>
    </g>
    <g id="ytick_3">
     <g id="line2d_11">
      <g>
       <use xlink:href="#mb0ec5ec3d0" x="31.054375" y="139.178343" style="stroke: #000000; stroke-width: 0.8"/>
      </g>
     </g>
     <g id="text_12">
      <text style="font-size: 7px; font-family: 'Arial', 'Helvetica', 'DejaVu Sans', sans-serif; text-anchor: end" x="25.554375" y="141.683577" transform="rotate(-0 25.554375 141.683577)">6</text>
     </g>
    </g>
    <g id="ytick_4">
     <g id="line2d_12">
      <g>
       <use xlink:href="#mb0ec5ec3d0" x="31.054375" y="119.049881" style="stroke: #000000; stroke-width: 0.8"/>
      </g>
     </g>
     <g id="text_13">
      <text style="font-size: 7px; font-family: 'Arial', 'Helvetica', 'DejaVu Sans', sans-serif; text-anchor: end" x="25.554375" y="121.555116" transform="rotate(-0 25.554375 121.555116)">8</text>
     </g>
    </g>
    <g id="ytick_5">
     <g id="line2d_13">
      <g>
       <use xlink:href="#mb0ec5ec3d0" x="31.054375" y="98.92142" style="stroke: #000000; stroke-width: 0.8"/>
      </g>
     </g>
     <g id="text_14">
      <text style="font-size: 7px; font-family: 'Arial', 'Helvetica', 'DejaVu Sans', sans-serif; text-anchor: end" x="25.554375" y="101.426654" transform="rotate(-0 25.554375 101.426654)">10</text>
     </g>
    </g>
    <g id="ytick_6">
     <g id="line2d_14">
      <g>
       <use xlink:href="#mb0ec5ec3d0" x="31.054375" y="78.792958" style="stroke: #000000; stroke-width: 0.8"/>
      </g>
     </g>
     <g id="text_15">
      <text style="font-size: 7px; font-family: 'Arial', 'Helvetica', 'DejaVu Sans', sans-serif; text-anchor: end" x="25.554375" y="81.298193" transform="rotate(-0 25.554375 81.298193)">12</text>
     </g>
    </g>
    <g id="ytick_7">
     <g id="line2d_15">
      <g>
       <use xlink:href="#mb0ec5ec3d0" x="31.054375" y="58.664497" style="stroke: #000000; stroke-width: 0.8"/>
      </g>
     </g>
     <g id="text_16">
      <text style="font-size: 7px; font-family: 'Arial', 'Helvetica', 'DejaVu Sans', sans-serif; text-anchor: end" x="25.554375" y="61.169731" transform="rotate(-0 25.554375 61.169731)">14</text>
     </g>
    </g>
    <g id="ytick_8">
     <g id="line2d_16">
      <g>
       <use xlink:href="#mb0ec5ec3d0" x="31.054375" y="38.536036" style="stroke: #000000; stroke-width: 0.8"/>
      </g>
     </g>
     <g id="text_17">
      <text style="font-size: 7px; font-family: 'Arial', 'Helvetica', 'DejaVu Sans', sans-serif; text-anchor: end" x="25.554375" y="41.04127" transform="rotate(-0 25.554375 41.04127)">16</text>
     </g>
    </g>
    <g id="text_18">
     <text style="font-size: 7px; font-family: 'Arial', 'Helvetica', 'DejaVu Sans', sans-serif; text-anchor: middle" x="12.295781" y="105.505953" transform="rotate(-90 12.295781 105.505953)">decode tok/s (1-core)</text>
    </g>
   </g>
   <g id="line2d_17">
    <path d="M 40.402557 33.782999 
L 44.218141 52.994153 
L 48.033726 68.215204 
L 51.84931 80.572301 
L 55.664894 90.804251 
L 59.480479 99.415862 
L 63.296063 106.763791 
L 67.111648 113.107178 
L 70.927232 118.638839 
L 74.742817 123.505214 
L 78.558401 127.819514 
L 82.373985 131.670642 
L 86.18957 135.129387 
L 90.005154 138.25281 
L 93.820739 141.08742 
L 97.636323 143.671506 
L 101.451907 146.036874 
L 105.267492 148.210165 
L 109.083076 150.213862 
L 112.898661 152.067072 
L 116.714245 153.786134 
L 120.52983 155.385106 
L 124.345414 156.876146 
L 128.160998 158.269826 
L 131.976583 159.57538 
L 135.792167 160.800911 
L 139.607752 161.953558 
L 143.423336 163.039634 
L 147.23892 164.064745 
L 151.054505 165.033884 
L 154.870089 165.951514 
L 158.685674 166.821634 
L 162.501258 167.647841 
L 166.316843 168.433378 
L 170.132427 169.181175 
L 173.948011 169.893888 
L 177.763596 170.573931 
L 181.57918 171.223498 
L 185.394765 171.844594 
L 189.210349 172.43905 
L 193.025933 173.008544 
L 196.841518 173.554617 
L 200.657102 174.078684 
L 204.472687 174.582048 
L 208.288271 175.065913 
L 212.103856 175.531391 
L 215.91944 175.97951 
L 219.735024 176.411223 
L 223.550609 176.827415 
L 227.366193 177.228908 
" clip-path="url(#pa59990eacb)" style="fill: none; stroke-dasharray: 2.96,1.28; stroke-dashoffset: 0; stroke: #999999; stroke-width: 0.8"/>
   </g>
   <g id="patch_3">
    <path d="M 31.054375 184.401203 
L 31.054375 26.610703 
" style="fill: none; stroke: #000000; stroke-width: 0.8; stroke-linejoin: miter; stroke-linecap: square"/>
   </g>
   <g id="patch_4">
    <path d="M 31.054375 184.401203 
L 236.714375 184.401203 
" style="fill: none; stroke: #000000; stroke-width: 0.8; stroke-linejoin: miter; stroke-linecap: square"/>
   </g>
   <g id="PathCollection_1">
    <defs>
     <path id="mf581afe25a" d="M 0 3.162278 
C 0.838646 3.162278 1.643056 2.82908 2.236068 2.236068 
C 2.82908 1.643056 3.162278 0.838646 3.162278 0 
C 3.162278 -0.838646 2.82908 -1.643056 2.236068 -2.236068 
C 1.643056 -2.82908 0.838646 -3.162278 0 -3.162278 
C -0.838646 -3.162278 -1.643056 -2.82908 -2.236068 -2.236068 
C -2.82908 -1.643056 -3.162278 -0.838646 -3.162278 0 
C -3.162278 0.838646 -2.82908 1.643056 -2.236068 2.236068 
C -1.643056 2.82908 -0.838646 3.162278 0 3.162278 
z
" style="stroke: #ffffff"/>
    </defs>
    <g clip-path="url(#pa59990eacb)">
     <use xlink:href="#mf581afe25a" x="43.63707" y="68.024232" style="fill: #0072b2; stroke: #ffffff"/>
    </g>
   </g>
   <g id="PathCollection_2">
    <g clip-path="url(#pa59990eacb)">
     <use xlink:href="#mf581afe25a" x="95.379672" y="135.353935" style="fill: #0072b2; stroke: #ffffff"/>
    </g>
   </g>
   <g id="text_19">
    <text style="font-size: 7.5px; font-family: 'Arial', 'Helvetica', 'DejaVu Sans', sans-serif" transform="translate(84.703125 12.568359)">Two-pillar: micro→end-to-end</text>
    <text style="font-size: 7.5px; font-family: 'Arial', 'Helvetica', 'DejaVu Sans', sans-serif" transform="translate(72.400195 20.610703)">8B pred 2.44 vs meas 2.70 (10% err)</text>
   </g>
   <g id="PathCollection_3">
    <defs>
     <path id="mc4379aa18d" d="M -0 5.244044 
L 5.244044 0 
L 0 -5.244044 
L -5.244044 -0 
z
" style="stroke: #ffffff"/>
    </defs>
    <g clip-path="url(#pa59990eacb)">
     <use xlink:href="#mc4379aa18d" x="207.723079" y="172.390304" style="fill: #d55e00; stroke: #ffffff"/>
    </g>
   </g>
   <g id="PathCollection_4">
    <defs>
     <path id="me54dc9fdb5" d="M 0 -3.708099 
L -0.83252 -1.145866 
L -3.526612 -1.145866 
L -1.347046 0.437682 
L -2.179566 2.999915 
L -0 1.416368 
L 2.179566 2.999915 
L 1.347046 0.437682 
L 3.526612 -1.145866 
L 0.83252 -1.145866 
z
" style="stroke: #ffffff"/>
    </defs>
    <g clip-path="url(#pa59990eacb)">
     <use xlink:href="#me54dc9fdb5" x="207.723079" y="175.007004" style="fill: #009e73; stroke: #ffffff"/>
    </g>
   </g>
   <g id="legend_1">
    <g id="PathCollection_5">
     <g>
      <use xlink:href="#mf581afe25a" x="157.818125" y="34.803516" style="fill: #0072b2; stroke: #ffffff"/>
     </g>
    </g>
    <g id="text_20">
     <text style="font-size: 6px; font-family: 'Arial', 'Helvetica', 'DejaVu Sans', sans-serif; text-anchor: start" x="168.618125" y="36.378516" transform="rotate(-0 168.618125 36.378516)">fit (1B, 3B)</text>
    </g>
    <g id="PathCollection_6">
     <g>
      <use xlink:href="#mc4379aa18d" x="157.818125" y="43.434141" style="fill: #d55e00; stroke: #ffffff"/>
     </g>
    </g>
    <g id="text_21">
     <text style="font-size: 6px; font-family: 'Arial', 'Helvetica', 'DejaVu Sans', sans-serif; text-anchor: start" x="168.618125" y="45.009141" transform="rotate(-0 168.618125 45.009141)">8B measured (held out)</text>
    </g>
    <g id="PathCollection_7">
     <g>
      <use xlink:href="#me54dc9fdb5" x="157.818125" y="52.009453" style="fill: #009e73; stroke: #ffffff"/>
     </g>
    </g>
    <g id="text_22">
     <text style="font-size: 6px; font-family: 'Arial', 'Helvetica', 'DejaVu Sans', sans-serif; text-anchor: start" x="168.618125" y="53.584453" transform="rotate(-0 168.618125 53.584453)">8B predicted</text>
    </g>
    <g id="line2d_18">
     <path d="M 151.818125 59.971641 
L 157.818125 59.971641 
L 163.818125 59.971641 
" style="fill: none; stroke-dasharray: 2.96,1.28; stroke-dashoffset: 0; stroke: #999999; stroke-width: 0.8"/>
    </g>
    <g id="text_23">
     <text style="font-size: 6px; font-family: 'Arial', 'Helvetica', 'DejaVu Sans', sans-serif; text-anchor: start" x="168.618125" y="62.071641" transform="rotate(-0 168.618125 62.071641)">18 GB/s wall</text>
    </g>
   </g>
  </g>
 </g>
 <defs>
  <clipPath id="pa59990eacb">
   <rect x="31.054375" y="26.610703" width="205.66" height="157.7905"/>
  </clipPath>
 </defs>
</svg>
