<?xml version="1.0" encoding="utf-8" standalone="no"?>
<!DOCTYPE svg PUBLIC "-//W3C//DTD SVG 1.1//EN"
  "http://www.w3.org/Graphics/SVG/1.1/DTD/svg11.dtd">
<svg xmlns:xlink="http://www.w3.org/1999/xlink" width="227.791406pt" height="183.165219pt" viewBox="0 0 227.791406 183.165219" xmlns="http://www.w3.org/2000/svg" version="1.1">
 <metadata>
  <rdf:RDF xmlns:dc="http://purl.org/dc/elements/1.1/" xmlns:cc="http://creativecommons.org/ns#" xmlns:rdf="http://www.w3.org/1999/02/22-rdf-syntax-ns#">
   <cc:Work>
    <dc:type rdf:resource="http://purl.org/dc/dcmitype/StillImage"/>
    <dc:format>image/svg+xml</dc:format>
    <dc:creator>
     <cc:Agent>
      <dc:title>Matplotlib v3.10.9, https://matplotlib.org/</dc:title>
     </cc:Agent>
    </dc:creator>
   </cc:Work>
  </rdf:RDF>
 </metadata>
 <defs>
  <style type="text/css">*{stroke-linejoin: round; stroke-linecap: butt}</style>
 </defs>
 <g id="figure_1">
  <g id="patch_1">
   <path d="M 0 183.165219 
L 227.791406 183.165219 
L 227.791406 -0 
L 0 -0 
z
" style="fill: #ffffff"/>
  </g>
  <g id="axes_1">
   <g id="patch_2">
    <path d="M 36.451406 152.07975 
L 220.591406 152.07975 
L 220.591406 19.02375 
L 36.451406 19.02375 
z
" style="fill: #ffffff"/>
   </g>
   <g id="matplotlib.axis_1">
    <g id="xtick_1">
     <g id="line2d_1">
      <defs>
       <path id="mf696f2925b" d="M 0 0 
L 0 3.5 
" style="stroke: #000000; stroke-width: 0.8"/>
      </defs>
      <g>
       <use xlink:href="#mf696f2925b" x="58.273192" y="152.07975" style="stroke: #000000; stroke-width: 0.8"/>
      </g>
     </g>
     <g id="text_1">
      <text style="font-size: 7px; font-family: 'Arial', 'Helvetica', 'DejaVu Sans', sans-serif; text-anchor: middle" x="58.273192" y="164.090219" transform="rotate(-0 58.273192 164.090219)">200</text>
     </g>
    </g>
    <g id="xtick_2">
     <g id="line2d_2">
      <g>
       <use xlink:href="#mf696f2925b" x="95.639263" y="152.07975" style="stroke: #000000; stroke-width: 0.8"/>
      </g>
     </g>
     <g id="text_2">
      <text style="font-size: 7px; font-family: 'Arial', 'Helvetica', 'DejaVu Sans', sans-serif; text-anchor: middle" x="95.639263" y="164.090219" transform="rotate(-0 95.639263 164.090219)">400</text>
     </g>
    </g>
    <g id="xtick_3">
     <g id="line2d_3">
      <g>
       <use xlink:href="#mf696f2925b" x="133.005335" y="152.07975" style="stroke: #000000; stroke-width: 0.8"/>
      </g>
     </g>
     <g id="text_3">
      <text style="font-size: 7px; font-family: 'Arial', 'Helvetica', 'DejaVu Sans', sans-serif; text-anchor: middle" x="133.005335" y="164.090219" transform="rotate(-0 133.005335 164.090219)">600</text>
     </g>
    </g>
    <g id="xtick_4">
     <g id="line2d_4">
      <g>
       <use xlink:href="#mf696f2925b" x="170.371406" y="152.07975" style="stroke: #000000; stroke-width: 0.8"/>
      </g>
     </g>
     <g id="text_4">
      <text style="font-size: 7px; font-family: 'Arial', 'Helvetica', 'DejaVu Sans', sans-serif; text-anchor: middle" x="170.371406" y="164.090219" transform="rotate(-0 170.371406 164.090219)">800</text>
     </g>
    </g>
    <g id="xtick_5">
     <g id="line2d_5">
      <g>
       <use xlink:href="#mf696f2925b" x="207.737478" y="152.07975" style="stroke: #000000; stroke-width: 0.8"/>
      </g>
     </g>
     <g id="text_5">
      <text style="font-size: 7px; font-family: 'Arial', 'Helvetica', 'DejaVu Sans', sans-serif; text-anchor: middle" x="207.737478" y="164.090219" transform="rotate(-0 207.737478 164.090219)">1000</text>
     </g>
    </g>
    <g id="text_6">
     <text style="font-size: 7px; font-family: 'Arial', 'Helvetica', 'DejaVu Sans', sans-serif; text-anchor: middle" x="128.521406" y="174.491937" transform="rotate(-0 128.521406 174.491937)">KV length</text>
    </g>
   </g>
   <g id="matplotlib.axis_2">
    <g id="ytick_1">
     <g id="line2d_6">
      <defs>
       <path id="m054fe78fb6" d="M 0 0 
L -3.5 0 
" style="stroke: #000000; stroke-width: 0.8"/>
      </defs>
      <g>
       <use xlink:href="#m054fe78fb6" x="36.451406" y="140.974383" style="stroke: #000000; stroke-width: 0.8"/>
      </g>
     </g>
     <g id="text_7">
      <text style="font-size: 7px; font-family: 'Arial', 'Helvetica', 'DejaVu Sans', sans-serif; text-anchor: end" x="29.451406" y="143.479618" transform="rotate(-0 29.451406 143.479618)">100</text>
     </g>
    </g>
    <g id="ytick_2">
     <g id="line2d_7">
      <g>
       <use xlink:href="#m054fe78fb6" x="36.451406" y="125.741351" style="stroke: #000000; stroke-width: 0.8"/>
      </g>
     </g>
     <g id="text_8">
      <text style="font-size: 7px; font-family: 'Arial', 'Helvetica', 'DejaVu Sans', sans-serif; text-anchor: end" x="29.451406" y="128.246586" transform="rotate(-0 29.451406 128.246586)">150</text>
     </g>
    </g>
    <g id="ytick_3">
     <g id="line2d_8">
      <g>
       <use xlink:href="#m054fe78fb6" x="36.451406" y="110.508319" style="stroke: #000000; stroke-width: 0.8"/>
      </g>
     </g>
     <g id="text_9">
      <text style="font-size: 7px; font-family: 'Arial', 'Helvetica', 'DejaVu Sans', sans-serif; text-anchor: end" x="29.451406" y="113.013553" transform="rotate(-0 29.451406 113.013553)">200</text>
     </g>
    </g>
    <g id="ytick_4">
     <g id="line2d_9">
      <g>
       <use xlink:href="#m054fe78fb6" x="36.451406" y="95.275287" style="stroke: #000000; stroke-width: 0.8"/>
      </g>
     </g>
     <g id="text_10">
      <text style="font-size: 7px; font-family: 'Arial', 'Helvetica', 'DejaVu Sans', sans-serif; text-anchor: end" x="29.451406" y="97.780521" transform="rotate(-0 29.451406 97.780521)">250</text>
     </g>
    </g>
    <g id="ytick_5">
     <g id="line2d_10">
      <g>
       <use xlink:href="#m054fe78fb6" x="36.451406" y="80.042255" style="stroke: #000000; stroke-width: 0.8"/>
      </g>
     </g>
     <g id="text_11">
      <text style="font-size: 7px; font-family: 'Arial', 'Helvetica', 'DejaVu Sans', sans-serif; text-anchor: end" x="29.451406" y="82.547489" transform="rotate(-0 29.451406 82.547489)">300</text>
     </g>
    </g>
    <g id="ytick_6">
     <g id="line2d_11">
      <g>
       <use xlink:href="#m054fe78fb6" x="36.451406" y="64.809223" style="stroke: #000000; stroke-width: 0.8"/>
      </g>
     </g>
     <g id="text_12">
      <text style="font-size: 7px; font-family: 'Arial', 'Helvetica', 'DejaVu Sans', sans-serif; text-anchor: end" x="29.451406" y="67.314457" transform="rotate(-0 29.451406 67.314457)">350</text>
     </g>
    </g>
    <g id="ytick_7">
     <g id="line2d_12">
      <g>
       <use xlink:href="#m054fe78fb6" x="36.451406" y="49.57619" style="stroke: #000000; stroke-width: 0.8"/>
      </g>
     </g>
     <g id="text_13">
      <text style="font-size: 7px; font-family: 'Arial', 'Helvetica', 'DejaVu Sans', sans-serif; text-anchor: end" x="29.451406" y="52.081425" transform="rotate(-0 29.451406 52.081425)">400</text>
     </g>
    </g>
    <g id="ytick_8">
     <g id="line2d_13">
      <g>
       <use xlink:href="#m054fe78fb6" x="36.451406" y="34.343158" style="stroke: #000000; stroke-width: 0.8"/>
      </g>
     </g>
     <g id="text_14">
      <text style="font-size: 7px; font-family: 'Arial', 'Helvetica', 'DejaVu Sans', sans-serif; text-anchor: end" x="29.451406" y="36.848393" transform="rotate(-0 29.451406 36.848393)">450</text>
     </g>
    </g>
    <g id="ytick_9">
     <g id="line2d_14">
      <g>
       <use xlink:href="#m054fe78fb6" x="36.451406" y="19.110126" style="stroke: #000000; stroke-width: 0.8"/>
      </g>
     </g>
     <g id="text_15">
      <text style="font-size: 7px; font-family: 'Arial', 'Helvetica', 'DejaVu Sans', sans-serif; text-anchor: end" x="29.451406" y="21.615361" transform="rotate(-0 29.451406 21.615361)">500</text>
     </g>
    </g>
    <g id="text_16">
     <text style="font-size: 7px; font-family: 'Arial', 'Helvetica', 'DejaVu Sans', sans-serif; text-anchor: middle" x="12.300156" y="85.55175" transform="rotate(-90 12.300156 85.55175)">single-head attn QK^T+S·V (us)</text>
    </g>
   </g>
   <g id="line2d_15">
    <path d="M 44.821406 145.748952 
L 48.237733 143.286152 
L 51.654059 140.823352 
L 55.070386 138.360552 
L 58.486712 135.897752 
L 61.903039 133.434952 
L 65.319365 130.972152 
L 68.735692 128.509352 
L 72.152018 126.046552 
L 75.568345 123.583751 
L 78.984672 121.120951 
L 82.400998 118.658151 
L 85.817325 116.195351 
L 89.233651 113.732551 
L 92.649978 111.269751 
L 96.066304 108.806951 
L 99.482631 106.344151 
L 102.898957 103.881351 
L 106.315284 101.418551 
L 109.73161 98.955751 
L 113.147937 96.492951 
L 116.564263 94.030151 
L 119.98059 91.567351 
L 123.396916 89.104551 
L 126.813243 86.641751 
L 130.22957 84.178951 
L 133.645896 81.716151 
L 137.062223 79.253351 
L 140.478549 76.790551 
L 143.894876 74.327751 
L 147.311202 71.864951 
L 150.727529 69.402151 
L 154.143855 66.939351 
L 157.560182 64.476551 
L 160.976508 62.013751 
L 164.392835 59.550951 
L 167.809161 57.08815 
L 171.225488 54.62535 
L 174.641814 52.16255 
L 178.058141 49.69975 
L 181.474467 47.23695 
L 184.890794 44.77415 
L 188.307121 42.31135 
L 191.723447 39.84855 
L 195.139774 37.38575 
L 198.5561 34.92295 
L 201.972427 32.46015 
L 205.388753 29.99735 
L 208.80508 27.53455 
L 212.221406 25.07175 
" clip-path="url(#p3c7f9a3224)" style="fill: none; stroke: #d55e00; stroke-width: 1.2; stroke-linecap: square"/>
   </g>
   <g id="patch_3">
    <path d="M 36.451406 152.07975 
L 36.451406 19.02375 
" style="fill: none; stroke: #000000; stroke-width: 0.8; stroke-linejoin: miter; stroke-linecap: square"/>
   </g>
   <g id="patch_4">
    <path d="M 36.451406 152.07975 
L 220.591406 152.07975 
" style="fill: none; stroke: #000000; stroke-width: 0.8; stroke-linejoin: miter; stroke-linecap: square"/>
   </g>
   <g id="PathCollection_1">
    <defs>
     <path id="mcc1be00408" d="M 0 3.162278 
C 0.838646 3.162278 1.643056 2.82908 2.236068 2.236068 
C 2.82908 1.643056 3.162278 0.838646 3.162278 0 
C 3.162278 -0.838646 2.82908 -1.643056 2.236068 -2.236068 
C 1.643056 -2.82908 0.838646 -3.162278 0 -3.162278 
C -0.838646 -3.162278 -1.643056 -2.82908 -2.236068 -2.236068 
C -2.82908 -1.643056 -3.162278 -0.838646 -3.162278 0 
C -3.162278 0.838646 -2.82908 1.643056 -2.236068 2.236068 
C -1.643056 2.82908 -0.838646 3.162278 0 3.162278 
z
" style="stroke: #0072b2"/>
    </defs>
    <g clip-path="url(#p3c7f9a3224)">
     <use xlink:href="#mcc1be00408" x="44.821406" y="146.03175" style="fill: #0072b2; stroke: #0072b2"/>
     <use xlink:href="#mcc1be00408" x="116.564263" y="93.538721" style="fill: #0072b2; stroke: #0072b2"/>
     <use xlink:href="#mcc1be00408" x="212.221406" y="25.294737" style="fill: #0072b2; stroke: #0072b2"/>
    </g>
   </g>
   <g id="text_17">
    <text style="font-size: 8px; font-family: 'Arial', 'Helvetica', 'DejaVu Sans', sans-serif; text-anchor: middle" x="128.521406" y="13.02375" transform="rotate(-0 128.521406 13.02375)">M4-GPU  attention fit (median 0.6%)</text>
   </g>
   <g id="legend_1">
    <g id="PathCollection_2">
     <g>
      <use xlink:href="#mcc1be00408" x="47.851406" y="27.216562" style="fill: #0072b2; stroke: #0072b2"/>
     </g>
    </g>
    <g id="text_18">
     <text style="font-size: 6px; font-family: 'Arial', 'Helvetica', 'DejaVu Sans', sans-serif; text-anchor: start" x="58.651406" y="28.791562" transform="rotate(-0 58.651406 28.791562)">measured (f16)</text>
    </g>
    <g id="line2d_16">
     <path d="M 41.851406 35.249062 
L 47.851406 35.249062 
L 53.851406 35.249062 
" style="fill: none; stroke: #d55e00; stroke-width: 1.2; stroke-linecap: square"/>
    </g>
    <g id="text_19">
     <text style="font-size: 6px; font-family: 'Arial', 'Helvetica', 'DejaVu Sans', sans-serif; text-anchor: start" x="58.651406" y="37.349062" transform="rotate(-0 58.651406 37.349062)">fit = 27.7 + 0.442·kv</text>
    </g>
   </g>
  </g>
 </g>
 <defs>
  <clipPath id="p3c7f9a3224">
   <rect x="36.451406" y="19.02375" width="184.14" height="133.056"/>
  </clipPath>
 </defs>
</svg>
