<?xml version="1.0" encoding="utf-8" standalone="no"?>
<!DOCTYPE svg PUBLIC "-//W3C//DTD SVG 1.1//EN"
  "http://www.w3.org/Graphics/SVG/1.1/DTD/svg11.dtd">
<svg xmlns:xlink="http://www.w3.org/1999/xlink" width="234.293437pt" height="185.463813pt" viewBox="0 0 234.293437 185.463813" xmlns="http://www.w3.org/2000/svg" version="1.1">
 <metadata>
  <rdf:RDF xmlns:dc="http://purl.org/dc/elements/1.1/" xmlns:cc="http://creativecommons.org/ns#" xmlns:rdf="http://www.w3.org/1999/02/22-rdf-syntax-ns#">
   <cc:Work>
    <dc:type rdf:resource="http://purl.org/dc/dcmitype/StillImage"/>
    <dc:format>image/svg+xml</dc:format>
    <dc:creator>
     <cc:Agent>
      <dc:title>Matplotlib v3.10.9, https://matplotlib.org/</dc:title>
     </cc:Agent>
    </dc:creator>
   </cc:Work>
  </rdf:RDF>
 </metadata>
 <defs>
  <style type="text/css">*{stroke-linejoin: round; stroke-linecap: butt}</style>
 </defs>
 <g id="figure_1">
  <g id="patch_1">
   <path d="M 0 185.463813 
L 234.293437 185.463813 
L 234.293437 0 
L 0 0 
z
" style="fill: #ffffff"/>
  </g>
  <g id="axes_1">
   <g id="patch_2">
    <path d="M 35.759062 152.08475 
L 219.899063 152.08475 
L 219.899063 19.02875 
L 35.759062 19.02875 
z
" style="fill: #ffffff"/>
   </g>
   <g id="PathCollection_1">
    <path d="M 91.507821 124.650943 
C 92.183959 124.650943 92.832495 124.38231 93.310596 123.904209 
C 93.788698 123.426107 94.05733 122.777571 94.05733 122.101433 
C 94.05733 121.425295 93.788698 120.776759 93.310596 120.298658 
C 92.832495 119.820556 92.183959 119.551923 91.507821 119.551923 
C 90.831683 119.551923 90.183147 119.820556 89.705045 120.298658 
C 89.226943 120.776759 88.958311 121.425295 88.958311 122.101433 
C 88.958311 122.777571 89.226943 123.426107 89.705045 123.904209 
C 90.183147 124.38231 90.831683 124.650943 91.507821 124.650943 
z
" clip-path="url(#p5d44d0b2f9)" style="fill: #0072b2"/>
   </g>
   <g id="PathCollection_2">
    <path d="M 45.696529 145.825965 
C 46.372667 145.825965 47.021203 145.557332 47.499304 145.079231 
C 47.977406 144.601129 48.246038 143.952593 48.246038 143.276455 
C 48.246038 142.600317 47.977406 141.951781 47.499304 141.47368 
C 47.021203 140.995578 46.372667 140.726945 45.696529 140.726945 
C 45.020391 140.726945 44.371855 140.995578 43.893753 141.47368 
C 43.415651 141.951781 43.147019 142.600317 43.147019 143.276455 
C 43.147019 143.952593 43.415651 144.601129 43.893753 145.079231 
C 44.371855 145.557332 45.020391 145.825965 45.696529 145.825965 
z
" clip-path="url(#p5d44d0b2f9)" style="fill: #0072b2"/>
   </g>
   <g id="PathCollection_3">
    <path d="M 82.001119 129.379097 
C 82.677257 129.379097 83.325793 129.110465 83.803894 128.632363 
C 84.281996 128.154261 84.550628 127.505725 84.550628 126.829587 
C 84.550628 126.153449 84.281996 125.504913 83.803894 125.026812 
C 83.325793 124.54871 82.677257 124.280078 82.001119 124.280078 
C 81.324981 124.280078 80.676445 124.54871 80.198343 125.026812 
C 79.720241 125.504913 79.451609 126.153449 79.451609 126.829587 
C 79.451609 127.505725 79.720241 128.154261 80.198343 128.632363 
C 80.676445 129.110465 81.324981 129.379097 82.001119 129.379097 
z
" clip-path="url(#p5d44d0b2f9)" style="fill: #009e73"/>
   </g>
   <g id="PathCollection_4">
    <path d="M 137.319113 87.68162 
C 137.995251 87.68162 138.643787 87.412988 139.121888 86.934886 
C 139.59999 86.456784 139.868623 85.808248 139.868623 85.13211 
C 139.868623 84.455973 139.59999 83.807437 139.121888 83.329335 
C 138.643787 82.851233 137.995251 82.582601 137.319113 82.582601 
C 136.642975 82.582601 135.994439 82.851233 135.516337 83.329335 
C 135.038235 83.807437 134.769603 84.455973 134.769603 85.13211 
C 134.769603 85.808248 135.038235 86.456784 135.516337 86.934886 
C 135.994439 87.412988 136.642975 87.68162 137.319113 87.68162 
z
" clip-path="url(#p5d44d0b2f9)" style="fill: #0072b2"/>
   </g>
   <g id="PathCollection_5">
    <path d="M 137.319113 87.68162 
C 137.995251 87.68162 138.643787 87.412988 139.121888 86.934886 
C 139.59999 86.456784 139.868623 85.808248 139.868623 85.13211 
C 139.868623 84.455973 139.59999 83.807437 139.121888 83.329335 
C 138.643787 82.851233 137.995251 82.582601 137.319113 82.582601 
C 136.642975 82.582601 135.994439 82.851233 135.516337 83.329335 
C 135.038235 83.807437 134.769603 84.455973 134.769603 85.13211 
C 134.769603 85.808248 135.038235 86.456784 135.516337 86.934886 
C 135.994439 87.412988 136.642975 87.68162 137.319113 87.68162 
z
" clip-path="url(#p5d44d0b2f9)" style="fill: #0072b2"/>
   </g>
   <g id="PathCollection_6">
    <path d="M 118.305709 87.68162 
C 118.981847 87.68162 119.630383 87.412988 120.108484 86.934886 
C 120.586586 86.456784 120.855218 85.808248 120.855218 85.13211 
C 120.855218 84.455973 120.586586 83.807437 120.108484 83.329335 
C 119.630383 82.851233 118.981847 82.582601 118.305709 82.582601 
C 117.629571 82.582601 116.981035 82.851233 116.502933 83.329335 
C 116.024831 83.807437 115.756199 84.455973 115.756199 85.13211 
C 115.756199 85.808248 116.024831 86.456784 116.502933 86.934886 
C 116.981035 87.412988 117.629571 87.68162 118.305709 87.68162 
z
" clip-path="url(#p5d44d0b2f9)" style="fill: #009e73"/>
   </g>
   <g id="PathCollection_7">
    <path d="M 150.718057 69.193167 
C 151.394195 69.193167 152.042731 68.924535 152.520832 68.446433 
C 152.998934 67.968331 153.267567 67.319795 153.267567 66.643657 
C 153.267567 65.967519 152.998934 65.318983 152.520832 64.840882 
C 152.042731 64.36278 151.394195 64.094147 150.718057 64.094147 
C 150.041919 64.094147 149.393383 64.36278 148.915281 64.840882 
C 148.437179 65.318983 148.168547 65.967519 148.168547 66.643657 
C 148.168547 67.319795 148.437179 67.968331 148.915281 68.446433 
C 149.393383 68.924535 150.041919 69.193167 150.718057 69.193167 
z
" clip-path="url(#p5d44d0b2f9)" style="fill: #009e73"/>
   </g>
   <g id="PathCollection_8">
    <path d="M 150.718057 69.193167 
C 151.394195 69.193167 152.042731 68.924535 152.520832 68.446433 
C 152.998934 67.968331 153.267567 67.319795 153.267567 66.643657 
C 153.267567 65.967519 152.998934 65.318983 152.520832 64.840882 
C 152.042731 64.36278 151.394195 64.094147 150.718057 64.094147 
C 150.041919 64.094147 149.393383 64.36278 148.915281 64.840882 
C 148.437179 65.318983 148.168547 65.967519 148.168547 66.643657 
C 148.168547 67.319795 148.437179 67.968331 148.915281 68.446433 
C 149.393383 68.924535 150.041919 69.193167 150.718057 69.193167 
z
" clip-path="url(#p5d44d0b2f9)" style="fill: #009e73"/>
   </g>
   <g id="PathCollection_9">
    <defs>
     <path id="mee0f674f58" d="M -0 3.605551 
L 3.605551 0 
L 0 -3.605551 
L -3.605551 -0 
z
" style="stroke: #000000; stroke-width: 0.5"/>
    </defs>
    <g clip-path="url(#p5d44d0b2f9)">
     <use xlink:href="#mee0f674f58" x="137.319113" y="85.13211" style="fill: #d55e00; stroke: #000000; stroke-width: 0.5"/>
    </g>
   </g>
   <g id="PathCollection_10">
    <g clip-path="url(#p5d44d0b2f9)">
     <use xlink:href="#mee0f674f58" x="91.507821" y="125.033661" style="fill: #d55e00; stroke: #000000; stroke-width: 0.5"/>
    </g>
   </g>
   <g id="PathCollection_11">
    <g clip-path="url(#p5d44d0b2f9)">
     <use xlink:href="#mee0f674f58" x="178.717745" y="51.716913" style="fill: #d55e00; stroke: #000000; stroke-width: 0.5"/>
    </g>
   </g>
   <g id="PathCollection_12">
    <g clip-path="url(#p5d44d0b2f9)">
     <use xlink:href="#mee0f674f58" x="178.717745" y="51.716913" style="fill: #d55e00; stroke: #000000; stroke-width: 0.5"/>
    </g>
   </g>
   <g id="PathCollection_13">
    <defs>
     <path id="m821b6319f9" d="M -0 3.605551 
L 3.605551 0 
L 0 -3.605551 
L -3.605551 -0 
z
" style="stroke: #000000; stroke-width: 0.5"/>
    </defs>
    <g clip-path="url(#p5d44d0b2f9)">
     <use xlink:href="#m821b6319f9" x="128.493793" y="85.13211" style="fill: #cc79a7; stroke: #000000; stroke-width: 0.5"/>
    </g>
   </g>
   <g id="PathCollection_14">
    <g clip-path="url(#p5d44d0b2f9)">
     <use xlink:href="#m821b6319f9" x="64.189515" y="135.537573" style="fill: #cc79a7; stroke: #000000; stroke-width: 0.5"/>
    </g>
   </g>
   <g id="PathCollection_15">
    <g clip-path="url(#p5d44d0b2f9)">
     <use xlink:href="#m821b6319f9" x="183.51541" y="42.203251" style="fill: #cc79a7; stroke: #000000; stroke-width: 0.5"/>
    </g>
   </g>
   <g id="PathCollection_16">
    <g clip-path="url(#p5d44d0b2f9)">
     <use xlink:href="#m821b6319f9" x="183.51541" y="42.203251" style="fill: #cc79a7; stroke: #000000; stroke-width: 0.5"/>
    </g>
   </g>
   <g id="matplotlib.axis_1">
    <g id="xtick_1">
     <g id="line2d_1">
      <defs>
       <path id="m9169d06343" d="M 0 0 
L 0 3.5 
" style="stroke: #000000; stroke-width: 0.8"/>
      </defs>
      <g>
       <use xlink:href="#m9169d06343" x="44.129063" y="152.08475" style="stroke: #000000; stroke-width: 0.8"/>
      </g>
     </g>
     <g id="text_1">
      <!-- $\mathdefault{10^{6}}$ -->
      <g transform="translate(38.634063 166.3035)">
       <text>
        <tspan x="0" y="-0.599563" style="font-size: 7px; font-family: 'Arial'">1</tspan>
        <tspan x="3.893066" y="-0.599563" style="font-size: 7px; font-family: 'Arial'">0</tspan>
        <tspan x="7.908097" y="-5.478125" style="font-size: 4.9px; font-family: 'Arial'">6</tspan>
       </text>
      </g>
     </g>
    </g>
    <g id="xtick_2">
     <g id="line2d_2">
      <g>
       <use xlink:href="#m9169d06343" x="120.219972" y="152.08475" style="stroke: #000000; stroke-width: 0.8"/>
      </g>
     </g>
     <g id="text_2">
      <!-- $\mathdefault{10^{7}}$ -->
      <g transform="translate(114.724972 166.2335)">
       <text>
        <tspan x="0" y="-0.65425" style="font-size: 7px; font-family: 'Arial'">1</tspan>
        <tspan x="3.893066" y="-0.65425" style="font-size: 7px; font-family: 'Arial'">0</tspan>
        <tspan x="7.908097" y="-5.532813" style="font-size: 4.9px; font-family: 'Arial'">7</tspan>
       </text>
      </g>
     </g>
    </g>
    <g id="xtick_3">
     <g id="line2d_3">
      <g>
       <use xlink:href="#m9169d06343" x="196.310881" y="152.08475" style="stroke: #000000; stroke-width: 0.8"/>
      </g>
     </g>
     <g id="text_3">
      <!-- $\mathdefault{10^{8}}$ -->
      <g transform="translate(190.815881 166.3035)">
       <text>
        <tspan x="0" y="-0.599563" style="font-size: 7px; font-family: 'Arial'">1</tspan>
        <tspan x="3.893066" y="-0.599563" style="font-size: 7px; font-family: 'Arial'">0</tspan>
        <tspan x="7.908097" y="-5.478125" style="font-size: 4.9px; font-family: 'Arial'">8</tspan>
       </text>
      </g>
     </g>
    </g>
    <g id="xtick_4">
     <g id="line2d_4">
      <defs>
       <path id="m52346e07e4" d="M 0 0 
L 0 2 
" style="stroke: #000000; stroke-width: 0.6"/>
      </defs>
      <g>
       <use xlink:href="#m52346e07e4" x="36.755092" y="152.08475" style="stroke: #000000; stroke-width: 0.6"/>
      </g>
     </g>
    </g>
    <g id="xtick_5">
     <g id="line2d_5">
      <g>
       <use xlink:href="#m52346e07e4" x="40.647333" y="152.08475" style="stroke: #000000; stroke-width: 0.6"/>
      </g>
     </g>
    </g>
    <g id="xtick_6">
     <g id="line2d_6">
      <g>
       <use xlink:href="#m52346e07e4" x="67.034709" y="152.08475" style="stroke: #000000; stroke-width: 0.6"/>
      </g>
     </g>
    </g>
    <g id="xtick_7">
     <g id="line2d_7">
      <g>
       <use xlink:href="#m52346e07e4" x="80.433653" y="152.08475" style="stroke: #000000; stroke-width: 0.6"/>
      </g>
     </g>
    </g>
    <g id="xtick_8">
     <g id="line2d_8">
      <g>
       <use xlink:href="#m52346e07e4" x="89.940355" y="152.08475" style="stroke: #000000; stroke-width: 0.6"/>
      </g>
     </g>
    </g>
    <g id="xtick_9">
     <g id="line2d_9">
      <g>
       <use xlink:href="#m52346e07e4" x="97.314326" y="152.08475" style="stroke: #000000; stroke-width: 0.6"/>
      </g>
     </g>
    </g>
    <g id="xtick_10">
     <g id="line2d_10">
      <g>
       <use xlink:href="#m52346e07e4" x="103.339299" y="152.08475" style="stroke: #000000; stroke-width: 0.6"/>
      </g>
     </g>
    </g>
    <g id="xtick_11">
     <g id="line2d_11">
      <g>
       <use xlink:href="#m52346e07e4" x="108.433341" y="152.08475" style="stroke: #000000; stroke-width: 0.6"/>
      </g>
     </g>
    </g>
    <g id="xtick_12">
     <g id="line2d_12">
      <g>
       <use xlink:href="#m52346e07e4" x="112.846001" y="152.08475" style="stroke: #000000; stroke-width: 0.6"/>
      </g>
     </g>
    </g>
    <g id="xtick_13">
     <g id="line2d_13">
      <g>
       <use xlink:href="#m52346e07e4" x="116.738243" y="152.08475" style="stroke: #000000; stroke-width: 0.6"/>
      </g>
     </g>
    </g>
    <g id="xtick_14">
     <g id="line2d_14">
      <g>
       <use xlink:href="#m52346e07e4" x="143.125618" y="152.08475" style="stroke: #000000; stroke-width: 0.6"/>
      </g>
     </g>
    </g>
    <g id="xtick_15">
     <g id="line2d_15">
      <g>
       <use xlink:href="#m52346e07e4" x="156.524562" y="152.08475" style="stroke: #000000; stroke-width: 0.6"/>
      </g>
     </g>
    </g>
    <g id="xtick_16">
     <g id="line2d_16">
      <g>
       <use xlink:href="#m52346e07e4" x="166.031264" y="152.08475" style="stroke: #000000; stroke-width: 0.6"/>
      </g>
     </g>
    </g>
    <g id="xtick_17">
     <g id="line2d_17">
      <g>
       <use xlink:href="#m52346e07e4" x="173.405235" y="152.08475" style="stroke: #000000; stroke-width: 0.6"/>
      </g>
     </g>
    </g>
    <g id="xtick_18">
     <g id="line2d_18">
      <g>
       <use xlink:href="#m52346e07e4" x="179.430208" y="152.08475" style="stroke: #000000; stroke-width: 0.6"/>
      </g>
     </g>
    </g>
    <g id="xtick_19">
     <g id="line2d_19">
      <g>
       <use xlink:href="#m52346e07e4" x="184.52425" y="152.08475" style="stroke: #000000; stroke-width: 0.6"/>
      </g>
     </g>
    </g>
    <g id="xtick_20">
     <g id="line2d_20">
      <g>
       <use xlink:href="#m52346e07e4" x="188.93691" y="152.08475" style="stroke: #000000; stroke-width: 0.6"/>
      </g>
     </g>
    </g>
    <g id="xtick_21">
     <g id="line2d_21">
      <g>
       <use xlink:href="#m52346e07e4" x="192.829152" y="152.08475" style="stroke: #000000; stroke-width: 0.6"/>
      </g>
     </g>
    </g>
    <g id="xtick_22">
     <g id="line2d_22">
      <g>
       <use xlink:href="#m52346e07e4" x="219.216527" y="152.08475" style="stroke: #000000; stroke-width: 0.6"/>
      </g>
     </g>
    </g>
    <g id="text_4">
     <text style="font-size: 7px; font-family: 'Arial', 'Helvetica', 'DejaVu Sans', sans-serif; text-anchor: middle" x="127.829063" y="176.790531" transform="rotate(-0 127.829063 176.790531)">weight size K*N (params)</text>
    </g>
   </g>
   <g id="matplotlib.axis_2">
    <g id="ytick_1">
     <g id="line2d_23">
      <defs>
       <path id="m2b96b708df" d="M 0 0 
L -3.5 0 
" style="stroke: #000000; stroke-width: 0.8"/>
      </defs>
      <g>
       <use xlink:href="#m2b96b708df" x="35.759062" y="98.457308" style="stroke: #000000; stroke-width: 0.8"/>
      </g>
     </g>
     <g id="text_5">
      <!-- $\mathdefault{10^{2}}$ -->
      <g transform="translate(17.769062 102.066683)">
       <text>
        <tspan x="0" y="-0.599563" style="font-size: 7px; font-family: 'Arial'">1</tspan>
        <tspan x="3.893066" y="-0.599563" style="font-size: 7px; font-family: 'Arial'">0</tspan>
        <tspan x="7.908097" y="-5.478125" style="font-size: 4.9px; font-family: 'Arial'">2</tspan>
       </text>
      </g>
     </g>
    </g>
    <g id="ytick_2">
     <g id="line2d_24">
      <g>
       <use xlink:href="#m2b96b708df" x="35.759062" y="37.039996" style="stroke: #000000; stroke-width: 0.8"/>
      </g>
     </g>
     <g id="text_6">
      <!-- $\mathdefault{10^{3}}$ -->
      <g transform="translate(17.769062 40.649371)">
       <text>
        <tspan x="0" y="-0.599563" style="font-size: 7px; font-family: 'Arial'">1</tspan>
        <tspan x="3.893066" y="-0.599563" style="font-size: 7px; font-family: 'Arial'">0</tspan>
        <tspan x="7.908097" y="-5.478125" style="font-size: 4.9px; font-family: 'Arial'">3</tspan>
       </text>
      </g>
     </g>
    </g>
    <g id="ytick_3">
     <g id="line2d_25">
      <defs>
       <path id="mdc3220e688" d="M 0 0 
L -2 0 
" style="stroke: #000000; stroke-width: 0.6"/>
      </defs>
      <g>
       <use xlink:href="#mdc3220e688" x="35.759062" y="141.386167" style="stroke: #000000; stroke-width: 0.6"/>
      </g>
     </g>
    </g>
    <g id="ytick_4">
     <g id="line2d_26">
      <g>
       <use xlink:href="#mdc3220e688" x="35.759062" y="130.571115" style="stroke: #000000; stroke-width: 0.6"/>
      </g>
     </g>
    </g>
    <g id="ytick_5">
     <g id="line2d_27">
      <g>
       <use xlink:href="#mdc3220e688" x="35.759062" y="122.897714" style="stroke: #000000; stroke-width: 0.6"/>
      </g>
     </g>
    </g>
    <g id="ytick_6">
     <g id="line2d_28">
      <g>
       <use xlink:href="#mdc3220e688" x="35.759062" y="116.945761" style="stroke: #000000; stroke-width: 0.6"/>
      </g>
     </g>
    </g>
    <g id="ytick_7">
     <g id="line2d_29">
      <g>
       <use xlink:href="#mdc3220e688" x="35.759062" y="112.082662" style="stroke: #000000; stroke-width: 0.6"/>
      </g>
     </g>
    </g>
    <g id="ytick_8">
     <g id="line2d_30">
      <g>
       <use xlink:href="#mdc3220e688" x="35.759062" y="107.97097" style="stroke: #000000; stroke-width: 0.6"/>
      </g>
     </g>
    </g>
    <g id="ytick_9">
     <g id="line2d_31">
      <g>
       <use xlink:href="#mdc3220e688" x="35.759062" y="104.40926" style="stroke: #000000; stroke-width: 0.6"/>
      </g>
     </g>
    </g>
    <g id="ytick_10">
     <g id="line2d_32">
      <g>
       <use xlink:href="#mdc3220e688" x="35.759062" y="101.26761" style="stroke: #000000; stroke-width: 0.6"/>
      </g>
     </g>
    </g>
    <g id="ytick_11">
     <g id="line2d_33">
      <g>
       <use xlink:href="#mdc3220e688" x="35.759062" y="79.968855" style="stroke: #000000; stroke-width: 0.6"/>
      </g>
     </g>
    </g>
    <g id="ytick_12">
     <g id="line2d_34">
      <g>
       <use xlink:href="#mdc3220e688" x="35.759062" y="69.153803" style="stroke: #000000; stroke-width: 0.6"/>
      </g>
     </g>
    </g>
    <g id="ytick_13">
     <g id="line2d_35">
      <g>
       <use xlink:href="#mdc3220e688" x="35.759062" y="61.480401" style="stroke: #000000; stroke-width: 0.6"/>
      </g>
     </g>
    </g>
    <g id="ytick_14">
     <g id="line2d_36">
      <g>
       <use xlink:href="#mdc3220e688" x="35.759062" y="55.528449" style="stroke: #000000; stroke-width: 0.6"/>
      </g>
     </g>
    </g>
    <g id="ytick_15">
     <g id="line2d_37">
      <g>
       <use xlink:href="#mdc3220e688" x="35.759062" y="50.66535" style="stroke: #000000; stroke-width: 0.6"/>
      </g>
     </g>
    </g>
    <g id="ytick_16">
     <g id="line2d_38">
      <g>
       <use xlink:href="#mdc3220e688" x="35.759062" y="46.553658" style="stroke: #000000; stroke-width: 0.6"/>
      </g>
     </g>
    </g>
    <g id="ytick_17">
     <g id="line2d_39">
      <g>
       <use xlink:href="#mdc3220e688" x="35.759062" y="42.991948" style="stroke: #000000; stroke-width: 0.6"/>
      </g>
     </g>
    </g>
    <g id="ytick_18">
     <g id="line2d_40">
      <g>
       <use xlink:href="#mdc3220e688" x="35.759062" y="39.850298" style="stroke: #000000; stroke-width: 0.6"/>
      </g>
     </g>
    </g>
    <g id="text_7">
     <text style="font-size: 7px; font-family: 'Arial', 'Helvetica', 'DejaVu Sans', sans-serif; text-anchor: middle" x="12.295781" y="85.55675" transform="rotate(-90 12.295781 85.55675)">dev latency (us)</text>
    </g>
   </g>
   <g id="line2d_41">
    <path d="M 44.129063 146.03675 
L 46.966351 144.916504 
L 49.803639 143.769671 
L 52.640927 142.55577 
L 55.478215 141.285696 
L 58.315503 139.969596 
L 61.152791 138.616771 
L 63.990079 137.216936 
L 66.827368 135.762798 
L 69.664656 134.266519 
L 72.501944 132.723159 
L 75.339232 131.144947 
L 78.17652 129.514595 
L 81.013808 127.859533 
L 83.851096 126.152722 
L 86.688385 124.409536 
L 89.525673 122.643193 
L 92.362961 103.614359 
L 95.200249 103.614359 
L 98.037537 103.614359 
L 100.874825 103.614359 
L 103.712113 103.614359 
L 106.549401 103.614359 
L 109.38669 103.614359 
L 112.223978 103.614359 
L 115.061266 92.799307 
L 117.898554 92.799307 
L 120.735842 92.799307 
L 123.57313 92.799307 
L 126.410418 92.799307 
L 129.247707 85.125906 
L 132.084995 85.125906 
L 134.922283 85.125906 
L 137.759571 79.173953 
L 140.596859 79.173953 
L 143.434147 79.173953 
L 146.271435 74.310854 
L 149.108724 74.310854 
L 151.946012 70.199162 
L 154.7833 70.199162 
L 157.620588 66.637453 
L 160.457876 63.495802 
L 163.295164 63.495802 
L 166.132452 60.6855 
L 168.96974 58.143273 
L 171.807029 55.822401 
L 174.644317 53.687406 
L 177.481605 51.710709 
L 180.318893 49.870448 
L 183.156181 46.531947 
L 185.993469 45.007349 
L 188.830757 42.197047 
L 191.668046 40.895657 
L 194.505334 38.469149 
L 197.342622 36.245094 
L 200.17991 34.192297 
L 203.017198 31.381995 
L 205.854486 29.660546 
L 208.691774 27.270303 
L 211.529063 25.07675 
" clip-path="url(#p5d44d0b2f9)" style="fill: none; stroke: #999999; stroke-width: 0.8; stroke-linecap: square"/>
   </g>
   <g id="patch_3">
    <path d="M 35.759062 152.08475 
L 35.759062 19.02875 
" style="fill: none; stroke: #000000; stroke-width: 0.8; stroke-linejoin: miter; stroke-linecap: square"/>
   </g>
   <g id="patch_4">
    <path d="M 35.759062 152.08475 
L 219.899063 152.08475 
" style="fill: none; stroke: #000000; stroke-width: 0.8; stroke-linejoin: miter; stroke-linecap: square"/>
   </g>
   <g id="text_8">
    <text style="font-size: 8px; font-family: 'Arial', 'Helvetica', 'DejaVu Sans', sans-serif; text-anchor: middle" x="127.829063" y="13.02875" transform="rotate(-0 127.829063 13.02875)">P2  CIM decode GEMV fit (diamond=held-out 8B/Qwen)</text>
   </g>
   <g id="legend_1">
    <g id="line2d_42">
     <defs>
      <path id="m783a6f21dd" d="M 0 3 
C 0.795609 3 1.55874 2.683901 2.12132 2.12132 
C 2.683901 1.55874 3 0.795609 3 0 
C 3 -0.795609 2.683901 -1.55874 2.12132 -2.12132 
C 1.55874 -2.683901 0.795609 -3 0 -3 
C -0.795609 -3 -1.55874 -2.683901 -2.12132 -2.12132 
C -2.683901 -1.55874 -3 -0.795609 -3 0 
C -3 0.795609 -2.683901 1.55874 -2.12132 2.12132 
C -1.55874 2.683901 -0.795609 3 0 3 
z
" style="stroke: #0072b2"/>
     </defs>
     <g>
      <use xlink:href="#m783a6f21dd" x="45.259062" y="25.357656" style="fill: #0072b2; stroke: #0072b2"/>
     </g>
    </g>
    <g id="text_9">
     <text style="font-size: 5px; font-family: 'Arial', 'Helvetica', 'DejaVu Sans', sans-serif; text-anchor: start" x="54.259062" y="27.107656" transform="rotate(-0 54.259062 27.107656)">1b</text>
    </g>
    <g id="line2d_43">
     <defs>
      <path id="m0b31280f0a" d="M 0 3 
C 0.795609 3 1.55874 2.683901 2.12132 2.12132 
C 2.683901 1.55874 3 0.795609 3 0 
C 3 -0.795609 2.683901 -1.55874 2.12132 -2.12132 
C 1.55874 -2.683901 0.795609 -3 0 -3 
C -0.795609 -3 -1.55874 -2.683901 -2.12132 -2.12132 
C -2.683901 -1.55874 -3 -0.795609 -3 0 
C -3 0.795609 -2.683901 1.55874 -2.12132 2.12132 
C -1.55874 2.683901 -0.795609 3 0 3 
z
" style="stroke: #009e73"/>
     </defs>
     <g>
      <use xlink:href="#m0b31280f0a" x="45.259062" y="32.430313" style="fill: #009e73; stroke: #009e73"/>
     </g>
    </g>
    <g id="text_10">
     <text style="font-size: 5px; font-family: 'Arial', 'Helvetica', 'DejaVu Sans', sans-serif; text-anchor: start" x="54.259062" y="34.180313" transform="rotate(-0 54.259062 34.180313)">3b</text>
    </g>
    <g id="line2d_44">
     <defs>
      <path id="mbd102c4b94" d="M 0 3 
C 0.795609 3 1.55874 2.683901 2.12132 2.12132 
C 2.683901 1.55874 3 0.795609 3 0 
C 3 -0.795609 2.683901 -1.55874 2.12132 -2.12132 
C 1.55874 -2.683901 0.795609 -3 0 -3 
C -0.795609 -3 -1.55874 -2.683901 -2.12132 -2.12132 
C -2.683901 -1.55874 -3 -0.795609 -3 0 
C -3 0.795609 -2.683901 1.55874 -2.12132 2.12132 
C -1.55874 2.683901 -0.795609 3 0 3 
z
" style="stroke: #d55e00"/>
     </defs>
     <g>
      <use xlink:href="#mbd102c4b94" x="45.259062" y="39.502969" style="fill: #d55e00; stroke: #d55e00"/>
     </g>
    </g>
    <g id="text_11">
     <text style="font-size: 5px; font-family: 'Arial', 'Helvetica', 'DejaVu Sans', sans-serif; text-anchor: start" x="54.259062" y="41.252969" transform="rotate(-0 54.259062 41.252969)">8b</text>
    </g>
    <g id="line2d_45">
     <defs>
      <path id="m1101fb3e9f" d="M 0 3 
C 0.795609 3 1.55874 2.683901 2.12132 2.12132 
C 2.683901 1.55874 3 0.795609 3 0 
C 3 -0.795609 2.683901 -1.55874 2.12132 -2.12132 
C 1.55874 -2.683901 0.795609 -3 0 -3 
C -0.795609 -3 -1.55874 -2.683901 -2.12132 -2.12132 
C -2.683901 -1.55874 -3 -0.795609 -3 0 
C -3 0.795609 -2.683901 1.55874 -2.12132 2.12132 
C -1.55874 2.683901 -0.795609 3 0 3 
z
" style="stroke: #cc79a7"/>
     </defs>
     <g>
      <use xlink:href="#m1101fb3e9f" x="45.259062" y="46.575625" style="fill: #cc79a7; stroke: #cc79a7"/>
     </g>
    </g>
    <g id="text_12">
     <text style="font-size: 5px; font-family: 'Arial', 'Helvetica', 'DejaVu Sans', sans-serif; text-anchor: start" x="54.259062" y="48.325625" transform="rotate(-0 54.259062 48.325625)">7b</text>
    </g>
   </g>
  </g>
 </g>
 <defs>
  <clipPath id="p5d44d0b2f9">
   <rect x="35.759062" y="19.02875" width="184.14" height="133.056"/>
  </clipPath>
 </defs>
</svg>
