<?xml version="1.0" encoding="utf-8" standalone="no"?>
<!DOCTYPE svg PUBLIC "-//W3C//DTD SVG 1.1//EN"
  "http://www.w3.org/Graphics/SVG/1.1/DTD/svg11.dtd">
<svg xmlns:xlink="http://www.w3.org/1999/xlink" width="238.951406pt" height="188.627188pt" viewBox="0 0 238.951406 188.627188" xmlns="http://www.w3.org/2000/svg" version="1.1">
 <metadata>
  <rdf:RDF xmlns:dc="http://purl.org/dc/elements/1.1/" xmlns:cc="http://creativecommons.org/ns#" xmlns:rdf="http://www.w3.org/1999/02/22-rdf-syntax-ns#">
   <cc:Work>
    <dc:type rdf:resource="http://purl.org/dc/dcmitype/StillImage"/>
    <dc:format>image/svg+xml</dc:format>
    <dc:creator>
     <cc:Agent>
      <dc:title>Matplotlib v3.10.9, https://matplotlib.org/</dc:title>
     </cc:Agent>
    </dc:creator>
   </cc:Work>
  </rdf:RDF>
 </metadata>
 <defs>
  <style type="text/css">*{stroke-linejoin: round; stroke-linecap: butt}</style>
 </defs>
 <g id="figure_1">
  <g id="patch_1">
   <path d="M 0 188.627188 
L 238.951406 188.627188 
L 238.951406 0 
L 0 0 
z
" style="fill: #ffffff"/>
  </g>
  <g id="axes_1">
   <g id="patch_2">
    <path d="M 36.451406 157.62375 
L 231.751406 157.62375 
L 231.751406 19.02375 
L 36.451406 19.02375 
z
" style="fill: #ffffff"/>
   </g>
   <g id="matplotlib.axis_1">
    <g id="xtick_1">
     <g id="line2d_1">
      <defs>
       <path id="md85a23ed27" d="M 0 0 
L 0 3.5 
" style="stroke: #000000; stroke-width: 0.8"/>
      </defs>
      <g>
       <use xlink:href="#md85a23ed27" x="39.601406" y="157.62375" style="stroke: #000000; stroke-width: 0.8"/>
      </g>
     </g>
     <g id="text_1">
      <text style="font-size: 7px; font-family: 'Arial', 'Helvetica', 'DejaVu Sans', sans-serif; text-anchor: middle" x="39.601406" y="169.634219" transform="rotate(-0 39.601406 169.634219)">0</text>
     </g>
    </g>
    <g id="xtick_2">
     <g id="line2d_2">
      <g>
       <use xlink:href="#md85a23ed27" x="61.973565" y="157.62375" style="stroke: #000000; stroke-width: 0.8"/>
      </g>
     </g>
     <g id="text_2">
      <text style="font-size: 7px; font-family: 'Arial', 'Helvetica', 'DejaVu Sans', sans-serif; text-anchor: middle" x="61.973565" y="169.634219" transform="rotate(-0 61.973565 169.634219)">250</text>
     </g>
    </g>
    <g id="xtick_3">
     <g id="line2d_3">
      <g>
       <use xlink:href="#md85a23ed27" x="84.345724" y="157.62375" style="stroke: #000000; stroke-width: 0.8"/>
      </g>
     </g>
     <g id="text_3">
      <text style="font-size: 7px; font-family: 'Arial', 'Helvetica', 'DejaVu Sans', sans-serif; text-anchor: middle" x="84.345724" y="169.634219" transform="rotate(-0 84.345724 169.634219)">500</text>
     </g>
    </g>
    <g id="xtick_4">
     <g id="line2d_4">
      <g>
       <use xlink:href="#md85a23ed27" x="106.717884" y="157.62375" style="stroke: #000000; stroke-width: 0.8"/>
      </g>
     </g>
     <g id="text_4">
      <text style="font-size: 7px; font-family: 'Arial', 'Helvetica', 'DejaVu Sans', sans-serif; text-anchor: middle" x="106.717884" y="169.634219" transform="rotate(-0 106.717884 169.634219)">750</text>
     </g>
    </g>
    <g id="xtick_5">
     <g id="line2d_5">
      <g>
       <use xlink:href="#md85a23ed27" x="129.090043" y="157.62375" style="stroke: #000000; stroke-width: 0.8"/>
      </g>
     </g>
     <g id="text_5">
      <text style="font-size: 7px; font-family: 'Arial', 'Helvetica', 'DejaVu Sans', sans-serif; text-anchor: middle" x="129.090043" y="169.634219" transform="rotate(-0 129.090043 169.634219)">1000</text>
     </g>
    </g>
    <g id="xtick_6">
     <g id="line2d_6">
      <g>
       <use xlink:href="#md85a23ed27" x="151.462202" y="157.62375" style="stroke: #000000; stroke-width: 0.8"/>
      </g>
     </g>
     <g id="text_6">
      <text style="font-size: 7px; font-family: 'Arial', 'Helvetica', 'DejaVu Sans', sans-serif; text-anchor: middle" x="151.462202" y="169.634219" transform="rotate(-0 151.462202 169.634219)">1250</text>
     </g>
    </g>
    <g id="xtick_7">
     <g id="line2d_7">
      <g>
       <use xlink:href="#md85a23ed27" x="173.834361" y="157.62375" style="stroke: #000000; stroke-width: 0.8"/>
      </g>
     </g>
     <g id="text_7">
      <text style="font-size: 7px; font-family: 'Arial', 'Helvetica', 'DejaVu Sans', sans-serif; text-anchor: middle" x="173.834361" y="169.634219" transform="rotate(-0 173.834361 169.634219)">1500</text>
     </g>
    </g>
    <g id="xtick_8">
     <g id="line2d_8">
      <g>
       <use xlink:href="#md85a23ed27" x="196.20652" y="157.62375" style="stroke: #000000; stroke-width: 0.8"/>
      </g>
     </g>
     <g id="text_8">
      <text style="font-size: 7px; font-family: 'Arial', 'Helvetica', 'DejaVu Sans', sans-serif; text-anchor: middle" x="196.20652" y="169.634219" transform="rotate(-0 196.20652 169.634219)">1750</text>
     </g>
    </g>
    <g id="xtick_9">
     <g id="line2d_9">
      <g>
       <use xlink:href="#md85a23ed27" x="218.578679" y="157.62375" style="stroke: #000000; stroke-width: 0.8"/>
      </g>
     </g>
     <g id="text_9">
      <text style="font-size: 7px; font-family: 'Arial', 'Helvetica', 'DejaVu Sans', sans-serif; text-anchor: middle" x="218.578679" y="169.634219" transform="rotate(-0 218.578679 169.634219)">2000</text>
     </g>
    </g>
    <g id="text_10">
     <text style="font-size: 7px; font-family: 'Arial', 'Helvetica', 'DejaVu Sans', sans-serif; text-anchor: middle" x="134.101406" y="180.035938" transform="rotate(-0 134.101406 180.035938)">output channels N</text>
    </g>
   </g>
   <g id="matplotlib.axis_2">
    <g id="ytick_1">
     <g id="line2d_10">
      <defs>
       <path id="m3296045095" d="M 0 0 
L -3.5 0 
" style="stroke: #000000; stroke-width: 0.8"/>
      </defs>
      <g>
       <use xlink:href="#m3296045095" x="36.451406" y="151.954475" style="stroke: #000000; stroke-width: 0.8"/>
      </g>
     </g>
     <g id="text_11">
      <text style="font-size: 7px; font-family: 'Arial', 'Helvetica', 'DejaVu Sans', sans-serif; text-anchor: end" x="29.451406" y="154.459709" transform="rotate(-0 29.451406 154.459709)">25</text>
     </g>
    </g>
    <g id="ytick_2">
     <g id="line2d_11">
      <g>
       <use xlink:href="#m3296045095" x="36.451406" y="136.383077" style="stroke: #000000; stroke-width: 0.8"/>
      </g>
     </g>
     <g id="text_12">
      <text style="font-size: 7px; font-family: 'Arial', 'Helvetica', 'DejaVu Sans', sans-serif; text-anchor: end" x="29.451406" y="138.888311" transform="rotate(-0 29.451406 138.888311)">50</text>
     </g>
    </g>
    <g id="ytick_3">
     <g id="line2d_12">
      <g>
       <use xlink:href="#m3296045095" x="36.451406" y="120.811679" style="stroke: #000000; stroke-width: 0.8"/>
      </g>
     </g>
     <g id="text_13">
      <text style="font-size: 7px; font-family: 'Arial', 'Helvetica', 'DejaVu Sans', sans-serif; text-anchor: end" x="29.451406" y="123.316913" transform="rotate(-0 29.451406 123.316913)">75</text>
     </g>
    </g>
    <g id="ytick_4">
     <g id="line2d_13">
      <g>
       <use xlink:href="#m3296045095" x="36.451406" y="105.240281" style="stroke: #000000; stroke-width: 0.8"/>
      </g>
     </g>
     <g id="text_14">
      <text style="font-size: 7px; font-family: 'Arial', 'Helvetica', 'DejaVu Sans', sans-serif; text-anchor: end" x="29.451406" y="107.745516" transform="rotate(-0 29.451406 107.745516)">100</text>
     </g>
    </g>
    <g id="ytick_5">
     <g id="line2d_14">
      <g>
       <use xlink:href="#m3296045095" x="36.451406" y="89.668883" style="stroke: #000000; stroke-width: 0.8"/>
      </g>
     </g>
     <g id="text_15">
      <text style="font-size: 7px; font-family: 'Arial', 'Helvetica', 'DejaVu Sans', sans-serif; text-anchor: end" x="29.451406" y="92.174118" transform="rotate(-0 29.451406 92.174118)">125</text>
     </g>
    </g>
    <g id="ytick_6">
     <g id="line2d_15">
      <g>
       <use xlink:href="#m3296045095" x="36.451406" y="74.097485" style="stroke: #000000; stroke-width: 0.8"/>
      </g>
     </g>
     <g id="text_16">
      <text style="font-size: 7px; font-family: 'Arial', 'Helvetica', 'DejaVu Sans', sans-serif; text-anchor: end" x="29.451406" y="76.60272" transform="rotate(-0 29.451406 76.60272)">150</text>
     </g>
    </g>
    <g id="ytick_7">
     <g id="line2d_16">
      <g>
       <use xlink:href="#m3296045095" x="36.451406" y="58.526088" style="stroke: #000000; stroke-width: 0.8"/>
      </g>
     </g>
     <g id="text_17">
      <text style="font-size: 7px; font-family: 'Arial', 'Helvetica', 'DejaVu Sans', sans-serif; text-anchor: end" x="29.451406" y="61.031322" transform="rotate(-0 29.451406 61.031322)">175</text>
     </g>
    </g>
    <g id="ytick_8">
     <g id="line2d_17">
      <g>
       <use xlink:href="#m3296045095" x="36.451406" y="42.95469" style="stroke: #000000; stroke-width: 0.8"/>
      </g>
     </g>
     <g id="text_18">
      <text style="font-size: 7px; font-family: 'Arial', 'Helvetica', 'DejaVu Sans', sans-serif; text-anchor: end" x="29.451406" y="45.459924" transform="rotate(-0 29.451406 45.459924)">200</text>
     </g>
    </g>
    <g id="ytick_9">
     <g id="line2d_18">
      <g>
       <use xlink:href="#m3296045095" x="36.451406" y="27.383292" style="stroke: #000000; stroke-width: 0.8"/>
      </g>
     </g>
     <g id="text_19">
      <text style="font-size: 7px; font-family: 'Arial', 'Helvetica', 'DejaVu Sans', sans-serif; text-anchor: end" x="29.451406" y="29.888526" transform="rotate(-0 29.451406 29.888526)">225</text>
     </g>
    </g>
    <g id="text_20">
     <text style="font-size: 7px; font-family: 'Arial', 'Helvetica', 'DejaVu Sans', sans-serif; text-anchor: middle" x="12.300156" y="88.32375" transform="rotate(-90 12.300156 88.32375)">effective throughput (GOP/s, INT8)</text>
    </g>
   </g>
   <g id="line2d_19">
    <path d="M 45.328679 151.32375 
L 49.881127 140.582763 
L 54.433574 131.312718 
L 58.986022 123.230818 
L 63.538469 116.122392 
L 68.090917 109.821548 
L 72.643364 104.19806 
L 77.195812 99.148273 
L 81.748259 94.588656 
L 86.300707 90.451143 
L 90.853155 86.679713 
L 95.405602 83.227838 
L 99.95805 80.056555 
L 104.510497 77.132988 
L 109.062945 74.429203 
L 113.615392 71.921314 
L 118.16784 69.588776 
L 122.720287 67.41382 
L 127.272735 65.380998 
L 131.825182 63.476818 
L 136.37763 61.689444 
L 140.930078 60.008448 
L 145.482525 58.424607 
L 150.034973 56.929736 
L 154.58742 55.516542 
L 159.139868 54.178509 
L 163.692315 52.909797 
L 168.244763 51.705155 
L 172.79721 50.559848 
L 177.349658 49.469599 
L 181.902106 48.43053 
L 186.454553 47.43912 
L 191.007001 46.492163 
L 195.559448 45.586736 
L 200.111896 44.720165 
L 204.664343 43.890001 
L 209.216791 43.093998 
L 213.769238 42.330088 
L 218.321686 41.59637 
L 222.874134 40.891089 
" clip-path="url(#pa46ba13924)" style="fill: none; stroke: #0072b2; stroke-opacity: 0.8; stroke-width: 0.9; stroke-linecap: square"/>
   </g>
   <g id="line2d_20">
    <path d="M 45.328679 150.04819 
L 49.881127 138.461587 
L 54.433574 128.461731 
L 58.986022 119.743559 
L 63.538469 112.075501 
L 68.090917 105.278604 
L 72.643364 99.21239 
L 77.195812 93.765044 
L 81.748259 88.846458 
L 86.300707 84.383207 
L 90.853155 80.31486 
L 95.405602 76.591226 
L 99.95805 73.170275 
L 104.510497 70.016541 
L 109.062945 67.099892 
L 113.615392 64.394563 
L 118.16784 61.878389 
L 122.720287 59.532202 
L 127.272735 57.33934 
L 131.825182 55.285248 
L 136.37763 53.357158 
L 140.930078 51.543821 
L 145.482525 49.835287 
L 150.034973 48.222728 
L 154.58742 46.698276 
L 159.139868 45.254903 
L 163.692315 43.886308 
L 168.244763 42.586826 
L 172.79721 41.351352 
L 177.349658 40.17527 
L 181.902106 39.054397 
L 186.454553 37.984935 
L 191.007001 36.963427 
L 195.559448 35.986717 
L 200.111896 35.051923 
L 204.664343 34.156402 
L 209.216791 33.297731 
L 213.769238 32.47368 
L 218.321686 31.682198 
L 222.874134 30.921391 
" clip-path="url(#pa46ba13924)" style="fill: none; stroke: #009e73; stroke-opacity: 0.8; stroke-width: 0.9; stroke-linecap: square"/>
   </g>
   <g id="line2d_21">
    <path d="M 45.328679 149.646006 
L 49.881127 137.79278 
L 54.433574 127.562813 
L 58.986022 118.644025 
L 63.538469 110.799516 
L 68.090917 103.846213 
L 72.643364 97.640408 
L 77.195812 92.067711 
L 81.748259 87.035941 
L 86.300707 82.469985 
L 90.853155 78.30802 
L 95.405602 74.4987 
L 99.95805 70.999029 
L 104.510497 67.772723 
L 109.062945 64.788959 
L 113.615392 62.021376 
L 118.16784 59.447302 
L 122.720287 57.047126 
L 127.272735 54.803804 
L 131.825182 52.702445 
L 136.37763 50.729986 
L 140.930078 48.874921 
L 145.482525 47.127073 
L 150.034973 45.477406 
L 154.58742 43.917875 
L 159.139868 42.441288 
L 163.692315 41.041199 
L 168.244763 39.711815 
L 172.79721 38.447911 
L 177.349658 37.244765 
L 181.902106 36.0981 
L 186.454553 35.004028 
L 191.007001 33.959014 
L 195.559448 32.959829 
L 200.111896 32.003524 
L 204.664343 31.087396 
L 209.216791 30.208965 
L 213.769238 29.365952 
L 218.321686 28.556257 
L 222.874134 27.777943 
" clip-path="url(#pa46ba13924)" style="fill: none; stroke: #cc79a7; stroke-opacity: 0.8; stroke-width: 0.9; stroke-linecap: square"/>
   </g>
   <g id="line2d_22">
    <path d="M 45.328679 149.332007 
L 49.881127 137.27062 
L 54.433574 126.860999 
L 58.986022 117.785583 
L 63.538469 109.803312 
L 68.090917 102.727898 
L 72.643364 96.413109 
L 77.195812 90.742547 
L 81.748259 85.622412 
L 86.300707 80.97627 
L 90.853155 76.741214 
L 95.405602 72.864997 
L 99.95805 69.303866 
L 104.510497 66.020901 
L 109.062945 62.984737 
L 113.615392 60.168551 
L 118.16784 57.549272 
L 122.720287 55.106946 
L 127.272735 52.824227 
L 131.825182 50.685965 
L 136.37763 48.678867 
L 140.930078 46.791225 
L 145.482525 45.012681 
L 150.034973 43.334043 
L 154.58742 41.747124 
L 159.139868 40.244606 
L 163.692315 38.81993 
L 168.244763 37.4672 
L 172.79721 36.181099 
L 177.349658 34.956825 
L 181.902106 33.790022 
L 186.454553 32.676737 
L 191.007001 31.61337 
L 195.559448 30.596638 
L 200.111896 29.623538 
L 204.664343 28.691322 
L 209.216791 27.797465 
L 213.769238 26.939647 
L 218.321686 26.115733 
L 222.874134 25.32375 
" clip-path="url(#pa46ba13924)" style="fill: none; stroke: #d55e00; stroke-opacity: 0.8; stroke-width: 0.9; stroke-linecap: square"/>
   </g>
   <g id="patch_3">
    <path d="M 36.451406 157.62375 
L 36.451406 19.02375 
" style="fill: none; stroke: #000000; stroke-width: 0.8; stroke-linejoin: miter; stroke-linecap: square"/>
   </g>
   <g id="patch_4">
    <path d="M 36.451406 157.62375 
L 231.751406 157.62375 
" style="fill: none; stroke: #000000; stroke-width: 0.8; stroke-linejoin: miter; stroke-linecap: square"/>
   </g>
   <g id="PathCollection_1">
    <defs>
     <path id="m0e37c470b0" d="M 0 2.44949 
C 0.649612 2.44949 1.272706 2.191396 1.732051 1.732051 
C 2.191396 1.272706 2.44949 0.649612 2.44949 0 
C 2.44949 -0.649612 2.191396 -1.272706 1.732051 -1.732051 
C 1.272706 -2.191396 0.649612 -2.44949 0 -2.44949 
C -0.649612 -2.44949 -1.272706 -2.191396 -1.732051 -1.732051 
C -2.191396 -1.272706 -2.44949 -0.649612 -2.44949 0 
C -2.44949 0.649612 -2.191396 1.272706 -1.732051 1.732051 
C -1.272706 2.191396 -0.649612 2.44949 0 2.44949 
z
" style="stroke: #0072b2"/>
    </defs>
    <g clip-path="url(#pa46ba13924)">
     <use xlink:href="#m0e37c470b0" x="45.328679" y="150.957905" style="fill: #0072b2; stroke: #0072b2"/>
     <use xlink:href="#m0e37c470b0" x="51.055952" y="137.255075" style="fill: #0072b2; stroke: #0072b2"/>
     <use xlink:href="#m0e37c470b0" x="62.510497" y="118.943111" style="fill: #0072b2; stroke: #0072b2"/>
     <use xlink:href="#m0e37c470b0" x="82.555952" y="101.814574" style="fill: #0072b2; stroke: #0072b2"/>
     <use xlink:href="#m0e37c470b0" x="85.419588" y="97.330011" style="fill: #0072b2; stroke: #0072b2"/>
     <use xlink:href="#m0e37c470b0" x="88.283224" y="97.890581" style="fill: #0072b2; stroke: #0072b2"/>
     <use xlink:href="#m0e37c470b0" x="129.090043" y="64.380933" style="fill: #0072b2; stroke: #0072b2"/>
     <use xlink:href="#m0e37c470b0" x="131.23777" y="61.764938" style="fill: #0072b2; stroke: #0072b2"/>
     <use xlink:href="#m0e37c470b0" x="177.055952" y="40.463266" style="fill: #0072b2; stroke: #0072b2"/>
     <use xlink:href="#m0e37c470b0" x="222.874134" y="40.650123" style="fill: #0072b2; stroke: #0072b2"/>
    </g>
   </g>
   <g id="PathCollection_2">
    <defs>
     <path id="m20ce431784" d="M 0 2.44949 
C 0.649612 2.44949 1.272706 2.191396 1.732051 1.732051 
C 2.191396 1.272706 2.44949 0.649612 2.44949 0 
C 2.44949 -0.649612 2.191396 -1.272706 1.732051 -1.732051 
C 1.272706 -2.191396 0.649612 -2.44949 0 -2.44949 
C -0.649612 -2.44949 -1.272706 -2.191396 -1.732051 -1.732051 
C -2.191396 -1.272706 -2.44949 -0.649612 -2.44949 0 
C -2.44949 0.649612 -2.191396 1.272706 -1.732051 1.732051 
C -1.272706 2.191396 -0.649612 2.44949 0 2.44949 
z
" style="stroke: #009e73"/>
    </defs>
    <g clip-path="url(#pa46ba13924)">
     <use xlink:href="#m20ce431784" x="131.23777" y="53.979239" style="fill: #009e73; stroke: #009e73"/>
    </g>
   </g>
   <g id="PathCollection_3">
    <defs>
     <path id="m0e4b434ac0" d="M 0 2.44949 
C 0.649612 2.44949 1.272706 2.191396 1.732051 1.732051 
C 2.191396 1.272706 2.44949 0.649612 2.44949 0 
C 2.44949 -0.649612 2.191396 -1.272706 1.732051 -1.732051 
C 1.272706 -2.191396 0.649612 -2.44949 0 -2.44949 
C -0.649612 -2.44949 -1.272706 -2.191396 -1.732051 -1.732051 
C -2.191396 -1.272706 -2.44949 -0.649612 -2.44949 0 
C -2.44949 0.649612 -2.191396 1.272706 -1.732051 1.732051 
C -1.272706 2.191396 -0.649612 2.44949 0 2.44949 
z
" style="stroke: #cc79a7"/>
    </defs>
    <g clip-path="url(#pa46ba13924)">
     <use xlink:href="#m0e4b434ac0" x="85.419588" y="75.716911" style="fill: #cc79a7; stroke: #cc79a7"/>
    </g>
   </g>
   <g id="PathCollection_4">
    <defs>
     <path id="m4641cd2685" d="M 0 2.44949 
C 0.649612 2.44949 1.272706 2.191396 1.732051 1.732051 
C 2.191396 1.272706 2.44949 0.649612 2.44949 0 
C 2.44949 -0.649612 2.191396 -1.272706 1.732051 -1.732051 
C 1.272706 -2.191396 0.649612 -2.44949 0 -2.44949 
C -0.649612 -2.44949 -1.272706 -2.191396 -1.732051 -1.732051 
C -2.191396 -1.272706 -2.44949 -0.649612 -2.44949 0 
C -2.44949 0.649612 -2.191396 1.272706 -1.732051 1.732051 
C -1.272706 2.191396 -0.649612 2.44949 0 2.44949 
z
" style="stroke: #d55e00"/>
    </defs>
    <g clip-path="url(#pa46ba13924)">
     <use xlink:href="#m4641cd2685" x="131.23777" y="26.013009" style="fill: #d55e00; stroke: #d55e00"/>
    </g>
   </g>
   <g id="text_21">
    <text style="font-size: 8px; font-family: 'Arial', 'Helvetica', 'DejaVu Sans', sans-serif; text-anchor: middle" x="134.101406" y="13.02375" transform="rotate(-0 134.101406 13.02375)">P2  CIM G_eff(N,K): meas (dots) vs 2D fit (lines)</text>
   </g>
   <g id="legend_1">
    <g id="text_22">
     <text style="font-size: 5px; font-family: 'Arial', 'Helvetica', 'DejaVu Sans', sans-serif; text-anchor: start" x="40.951406" y="27.102656" transform="rotate(-0 40.951406 27.102656)">wider K -&gt; higher</text>
    </g>
    <g id="PathCollection_5">
     <g>
      <use xlink:href="#m0e37c470b0" x="49.229141" y="32.921406" style="fill: #0072b2; stroke: #0072b2"/>
     </g>
    </g>
    <g id="text_23">
     <text style="font-size: 5px; font-family: 'Arial', 'Helvetica', 'DejaVu Sans', sans-serif; text-anchor: start" x="58.229141" y="34.233906" transform="rotate(-0 58.229141 34.233906)">K=2048</text>
    </g>
    <g id="PathCollection_6">
     <g>
      <use xlink:href="#m20ce431784" x="49.229141" y="39.994062" style="fill: #009e73; stroke: #009e73"/>
     </g>
    </g>
    <g id="text_24">
     <text style="font-size: 5px; font-family: 'Arial', 'Helvetica', 'DejaVu Sans', sans-serif; text-anchor: start" x="58.229141" y="41.306562" transform="rotate(-0 58.229141 41.306562)">K=3072</text>
    </g>
    <g id="PathCollection_7">
     <g>
      <use xlink:href="#m0e4b434ac0" x="49.229141" y="47.066719" style="fill: #cc79a7; stroke: #cc79a7"/>
     </g>
    </g>
    <g id="text_25">
     <text style="font-size: 5px; font-family: 'Arial', 'Helvetica', 'DejaVu Sans', sans-serif; text-anchor: start" x="58.229141" y="48.379219" transform="rotate(-0 58.229141 48.379219)">K=3584</text>
    </g>
    <g id="PathCollection_8">
     <g>
      <use xlink:href="#m4641cd2685" x="49.229141" y="54.139375" style="fill: #d55e00; stroke: #d55e00"/>
     </g>
    </g>
    <g id="text_26">
     <text style="font-size: 5px; font-family: 'Arial', 'Helvetica', 'DejaVu Sans', sans-serif; text-anchor: start" x="58.229141" y="55.451875" transform="rotate(-0 58.229141 55.451875)">K=4096</text>
    </g>
   </g>
  </g>
 </g>
 <defs>
  <clipPath id="pa46ba13924">
   <rect x="36.451406" y="19.02375" width="195.3" height="138.6"/>
  </clipPath>
 </defs>
</svg>
