<?xml version="1.0" encoding="utf-8" standalone="no"?>
<!DOCTYPE svg PUBLIC "-//W3C//DTD SVG 1.1//EN"
  "http://www.w3.org/Graphics/SVG/1.1/DTD/svg11.dtd">
<svg xmlns:xlink="http://www.w3.org/1999/xlink" width="337.699687pt" height="183.165219pt" viewBox="0 0 337.699687 183.165219" xmlns="http://www.w3.org/2000/svg" version="1.1">
 <metadata>
  <rdf:RDF xmlns:dc="http://purl.org/dc/elements/1.1/" xmlns:cc="http://creativecommons.org/ns#" xmlns:rdf="http://www.w3.org/1999/02/22-rdf-syntax-ns#">
   <cc:Work>
    <dc:type rdf:resource="http://purl.org/dc/dcmitype/StillImage"/>
    <dc:format>image/svg+xml</dc:format>
    <dc:creator>
     <cc:Agent>
      <dc:title>Matplotlib v3.10.9, https://matplotlib.org/</dc:title>
     </cc:Agent>
    </dc:creator>
   </cc:Work>
  </rdf:RDF>
 </metadata>
 <defs>
  <style type="text/css">*{stroke-linejoin: round; stroke-linecap: butt}</style>
 </defs>
 <g id="figure_1">
  <g id="patch_1">
   <path d="M 0 183.165219 
L 337.699687 183.165219 
L 337.699687 -0 
L 0 -0 
z
" style="fill: #ffffff"/>
  </g>
  <g id="axes_1">
   <g id="patch_2">
    <path d="M 40.339688 152.07975 
L 172.230597 152.07975 
L 172.230597 19.02375 
L 40.339688 19.02375 
z
" style="fill: #ffffff"/>
   </g>
   <g id="matplotlib.axis_1">
    <g id="xtick_1">
     <g id="line2d_1">
      <defs>
       <path id="m90c863af86" d="M 0 0 
L 0 3.5 
" style="stroke: #000000; stroke-width: 0.8"/>
      </defs>
      <g>
       <use xlink:href="#m90c863af86" x="55.969617" y="152.07975" style="stroke: #000000; stroke-width: 0.8"/>
      </g>
     </g>
     <g id="text_1">
      <text style="font-size: 7px; font-family: 'Arial', 'Helvetica', 'DejaVu Sans', sans-serif; text-anchor: middle" x="55.969617" y="164.090219" transform="rotate(-0 55.969617 164.090219)">200</text>
     </g>
    </g>
    <g id="xtick_2">
     <g id="line2d_2">
      <g>
       <use xlink:href="#m90c863af86" x="82.733194" y="152.07975" style="stroke: #000000; stroke-width: 0.8"/>
      </g>
     </g>
     <g id="text_2">
      <text style="font-size: 7px; font-family: 'Arial', 'Helvetica', 'DejaVu Sans', sans-serif; text-anchor: middle" x="82.733194" y="164.090219" transform="rotate(-0 82.733194 164.090219)">400</text>
     </g>
    </g>
    <g id="xtick_3">
     <g id="line2d_3">
      <g>
       <use xlink:href="#m90c863af86" x="109.496771" y="152.07975" style="stroke: #000000; stroke-width: 0.8"/>
      </g>
     </g>
     <g id="text_3">
      <text style="font-size: 7px; font-family: 'Arial', 'Helvetica', 'DejaVu Sans', sans-serif; text-anchor: middle" x="109.496771" y="164.090219" transform="rotate(-0 109.496771 164.090219)">600</text>
     </g>
    </g>
    <g id="xtick_4">
     <g id="line2d_4">
      <g>
       <use xlink:href="#m90c863af86" x="136.260349" y="152.07975" style="stroke: #000000; stroke-width: 0.8"/>
      </g>
     </g>
     <g id="text_4">
      <text style="font-size: 7px; font-family: 'Arial', 'Helvetica', 'DejaVu Sans', sans-serif; text-anchor: middle" x="136.260349" y="164.090219" transform="rotate(-0 136.260349 164.090219)">800</text>
     </g>
    </g>
    <g id="xtick_5">
     <g id="line2d_5">
      <g>
       <use xlink:href="#m90c863af86" x="163.023926" y="152.07975" style="stroke: #000000; stroke-width: 0.8"/>
      </g>
     </g>
     <g id="text_5">
      <text style="font-size: 7px; font-family: 'Arial', 'Helvetica', 'DejaVu Sans', sans-serif; text-anchor: middle" x="163.023926" y="164.090219" transform="rotate(-0 163.023926 164.090219)">1000</text>
     </g>
    </g>
    <g id="text_6">
     <text style="font-size: 7px; font-family: 'Arial', 'Helvetica', 'DejaVu Sans', sans-serif; text-anchor: middle" x="106.285142" y="174.491937" transform="rotate(-0 106.285142 174.491937)">kv length</text>
    </g>
   </g>
   <g id="matplotlib.axis_2">
    <g id="ytick_1">
     <g id="line2d_6">
      <defs>
       <path id="m63412f0416" d="M 0 0 
L -3.5 0 
" style="stroke: #000000; stroke-width: 0.8"/>
      </defs>
      <g>
       <use xlink:href="#m63412f0416" x="40.339688" y="142.78994" style="stroke: #000000; stroke-width: 0.8"/>
      </g>
     </g>
     <g id="text_7">
      <text style="font-size: 7px; font-family: 'Arial', 'Helvetica', 'DejaVu Sans', sans-serif; text-anchor: end" x="33.339688" y="145.295175" transform="rotate(-0 33.339688 145.295175)">200</text>
     </g>
    </g>
    <g id="ytick_2">
     <g id="line2d_7">
      <g>
       <use xlink:href="#m63412f0416" x="40.339688" y="126.026006" style="stroke: #000000; stroke-width: 0.8"/>
      </g>
     </g>
     <g id="text_8">
      <text style="font-size: 7px; font-family: 'Arial', 'Helvetica', 'DejaVu Sans', sans-serif; text-anchor: end" x="33.339688" y="128.531241" transform="rotate(-0 33.339688 128.531241)">400</text>
     </g>
    </g>
    <g id="ytick_3">
     <g id="line2d_8">
      <g>
       <use xlink:href="#m63412f0416" x="40.339688" y="109.262072" style="stroke: #000000; stroke-width: 0.8"/>
      </g>
     </g>
     <g id="text_9">
      <text style="font-size: 7px; font-family: 'Arial', 'Helvetica', 'DejaVu Sans', sans-serif; text-anchor: end" x="33.339688" y="111.767306" transform="rotate(-0 33.339688 111.767306)">600</text>
     </g>
    </g>
    <g id="ytick_4">
     <g id="line2d_9">
      <g>
       <use xlink:href="#m63412f0416" x="40.339688" y="92.498138" style="stroke: #000000; stroke-width: 0.8"/>
      </g>
     </g>
     <g id="text_10">
      <text style="font-size: 7px; font-family: 'Arial', 'Helvetica', 'DejaVu Sans', sans-serif; text-anchor: end" x="33.339688" y="95.003372" transform="rotate(-0 33.339688 95.003372)">800</text>
     </g>
    </g>
    <g id="ytick_5">
     <g id="line2d_10">
      <g>
       <use xlink:href="#m63412f0416" x="40.339688" y="75.734203" style="stroke: #000000; stroke-width: 0.8"/>
      </g>
     </g>
     <g id="text_11">
      <text style="font-size: 7px; font-family: 'Arial', 'Helvetica', 'DejaVu Sans', sans-serif; text-anchor: end" x="33.339688" y="78.239438" transform="rotate(-0 33.339688 78.239438)">1000</text>
     </g>
    </g>
    <g id="ytick_6">
     <g id="line2d_11">
      <g>
       <use xlink:href="#m63412f0416" x="40.339688" y="58.970269" style="stroke: #000000; stroke-width: 0.8"/>
      </g>
     </g>
     <g id="text_12">
      <text style="font-size: 7px; font-family: 'Arial', 'Helvetica', 'DejaVu Sans', sans-serif; text-anchor: end" x="33.339688" y="61.475503" transform="rotate(-0 33.339688 61.475503)">1200</text>
     </g>
    </g>
    <g id="ytick_7">
     <g id="line2d_12">
      <g>
       <use xlink:href="#m63412f0416" x="40.339688" y="42.206335" style="stroke: #000000; stroke-width: 0.8"/>
      </g>
     </g>
     <g id="text_13">
      <text style="font-size: 7px; font-family: 'Arial', 'Helvetica', 'DejaVu Sans', sans-serif; text-anchor: end" x="33.339688" y="44.711569" transform="rotate(-0 33.339688 44.711569)">1400</text>
     </g>
    </g>
    <g id="ytick_8">
     <g id="line2d_13">
      <g>
       <use xlink:href="#m63412f0416" x="40.339688" y="25.442401" style="stroke: #000000; stroke-width: 0.8"/>
      </g>
     </g>
     <g id="text_14">
      <text style="font-size: 7px; font-family: 'Arial', 'Helvetica', 'DejaVu Sans', sans-serif; text-anchor: end" x="33.339688" y="27.947635" transform="rotate(-0 33.339688 27.947635)">1600</text>
     </g>
    </g>
    <g id="text_15">
     <text style="font-size: 7px; font-family: 'Arial', 'Helvetica', 'DejaVu Sans', sans-serif; text-anchor: middle" x="12.295781" y="85.55175" transform="rotate(-90 12.295781 85.55175)">softmax (us, fp16)</text>
    </g>
   </g>
   <g id="line2d_14">
    <path d="M 46.334729 141.843784 
L 49.409109 138.852204 
L 52.483489 135.860624 
L 55.557869 132.869044 
L 58.632249 129.877464 
L 61.70663 126.885884 
L 64.78101 123.894304 
L 67.85539 120.902724 
L 70.92977 117.911144 
L 74.00415 114.919564 
L 77.07853 111.927984 
L 80.152911 108.936405 
L 83.227291 105.944825 
L 86.301671 102.953245 
L 89.376051 99.961665 
L 92.450431 96.970085 
L 95.524811 93.978505 
L 98.599192 90.986925 
L 101.673572 87.995345 
L 104.747952 85.003765 
L 107.822332 82.012185 
L 110.896712 79.020605 
L 113.971092 76.029025 
L 117.045473 73.037445 
L 120.119853 70.045865 
L 123.194233 67.054285 
L 126.268613 64.062705 
L 129.342993 61.071125 
L 132.417373 58.079545 
L 135.491754 55.087965 
L 138.566134 52.096385 
L 141.640514 49.104806 
L 144.714894 46.113226 
L 147.789274 43.121646 
L 150.863654 40.130066 
L 153.938035 37.138486 
L 157.012415 34.146906 
L 160.086795 31.155326 
L 163.161175 28.163746 
L 166.235555 25.172166 
" clip-path="url(#pd3adc47997)" style="fill: none; stroke: #0072b2; stroke-linecap: square"/>
   </g>
   <g id="line2d_15">
    <path d="M 46.334729 146.03175 
L 49.409109 143.787343 
L 52.483489 141.542936 
L 55.557869 139.298529 
L 58.632249 137.054122 
L 61.70663 134.809715 
L 64.78101 132.565307 
L 67.85539 130.3209 
L 70.92977 128.076493 
L 74.00415 125.832086 
L 77.07853 123.587679 
L 80.152911 121.343272 
L 83.227291 119.098865 
L 86.301671 116.854458 
L 89.376051 114.610051 
L 92.450431 112.365644 
L 95.524811 110.121236 
L 98.599192 107.876829 
L 101.673572 105.632422 
L 104.747952 103.388015 
L 107.822332 101.143608 
L 110.896712 98.899201 
L 113.971092 96.654794 
L 117.045473 94.410387 
L 120.119853 92.16598 
L 123.194233 89.921573 
L 126.268613 87.677165 
L 129.342993 85.432758 
L 132.417373 83.188351 
L 135.491754 80.943944 
L 138.566134 78.699537 
L 141.640514 76.45513 
L 144.714894 74.210723 
L 147.789274 71.966316 
L 150.863654 69.721909 
L 153.938035 67.477502 
L 157.012415 65.233094 
L 160.086795 62.988687 
L 163.161175 60.74428 
L 166.235555 58.499873 
" clip-path="url(#pd3adc47997)" style="fill: none; stroke: #009e73; stroke-linecap: square"/>
   </g>
   <g id="line2d_16">
    <path d="M 46.334729 141.858603 
L 49.409109 138.868179 
L 52.483489 135.877754 
L 55.557869 132.88733 
L 58.632249 129.896905 
L 61.70663 126.906481 
L 64.78101 123.916056 
L 67.85539 120.925632 
L 70.92977 117.935207 
L 74.00415 114.944783 
L 77.07853 111.954358 
L 80.152911 108.963933 
L 83.227291 105.973509 
L 86.301671 102.983084 
L 89.376051 99.99266 
L 92.450431 97.002235 
L 95.524811 94.011811 
L 98.599192 91.021386 
L 101.673572 88.030962 
L 104.747952 85.040537 
L 107.822332 82.050113 
L 110.896712 79.059688 
L 113.971092 76.069264 
L 117.045473 73.078839 
L 120.119853 70.088415 
L 123.194233 67.09799 
L 126.268613 64.107566 
L 129.342993 61.117141 
L 132.417373 58.126717 
L 135.491754 55.136292 
L 138.566134 52.145867 
L 141.640514 49.155443 
L 144.714894 46.165018 
L 147.789274 43.174594 
L 150.863654 40.184169 
L 153.938035 37.193745 
L 157.012415 34.20332 
L 160.086795 31.212896 
L 163.161175 28.222471 
L 166.235555 25.232047 
" clip-path="url(#pd3adc47997)" style="fill: none; stroke: #d55e00; stroke-linecap: square"/>
   </g>
   <g id="line2d_17">
    <path d="M 46.334729 143.929854 
L 49.409109 141.312246 
L 52.483489 138.694638 
L 55.557869 136.077029 
L 58.632249 133.459421 
L 61.70663 130.841812 
L 64.78101 128.224204 
L 67.85539 125.606596 
L 70.92977 122.988987 
L 74.00415 120.371379 
L 77.07853 117.753771 
L 80.152911 115.136162 
L 83.227291 112.518554 
L 86.301671 109.900945 
L 89.376051 107.283337 
L 92.450431 104.665729 
L 95.524811 102.04812 
L 98.599192 99.430512 
L 101.673572 96.812903 
L 104.747952 94.195295 
L 107.822332 91.577687 
L 110.896712 88.960078 
L 113.971092 86.34247 
L 117.045473 83.724862 
L 120.119853 81.107253 
L 123.194233 78.489645 
L 126.268613 75.872036 
L 129.342993 73.254428 
L 132.417373 70.63682 
L 135.491754 68.019211 
L 138.566134 65.401603 
L 141.640514 62.783995 
L 144.714894 60.166386 
L 147.789274 57.548778 
L 150.863654 54.931169 
L 153.938035 52.313561 
L 157.012415 49.695953 
L 160.086795 47.078344 
L 163.161175 44.460736 
L 166.235555 41.843127 
" clip-path="url(#pd3adc47997)" style="fill: none; stroke: #cc79a7; stroke-linecap: square"/>
   </g>
   <g id="patch_3">
    <path d="M 40.339688 152.07975 
L 40.339688 19.02375 
" style="fill: none; stroke: #000000; stroke-width: 0.8; stroke-linejoin: miter; stroke-linecap: square"/>
   </g>
   <g id="patch_4">
    <path d="M 40.339688 152.07975 
L 172.230597 152.07975 
" style="fill: none; stroke: #000000; stroke-width: 0.8; stroke-linejoin: miter; stroke-linecap: square"/>
   </g>
   <g id="PathCollection_1">
    <defs>
     <path id="mbef7895bff" d="M 0 2.12132 
C 0.562581 2.12132 1.102195 1.897805 1.5 1.5 
C 1.897805 1.102195 2.12132 0.562581 2.12132 0 
C 2.12132 -0.562581 1.897805 -1.102195 1.5 -1.5 
C 1.102195 -1.897805 0.562581 -2.12132 0 -2.12132 
C -0.562581 -2.12132 -1.102195 -1.897805 -1.5 -1.5 
C -1.897805 -1.102195 -2.12132 -0.562581 -2.12132 0 
C -2.12132 0.562581 -1.897805 1.102195 -1.5 1.5 
C -1.102195 1.897805 -0.562581 2.12132 0 2.12132 
z
" style="stroke: #0072b2"/>
    </defs>
    <g clip-path="url(#pd3adc47997)">
     <use xlink:href="#mbef7895bff" x="46.334729" y="141.707745" style="fill: #0072b2; stroke: #0072b2"/>
     <use xlink:href="#mbef7895bff" x="97.720797" y="92.080548" style="fill: #0072b2; stroke: #0072b2"/>
     <use xlink:href="#mbef7895bff" x="166.235555" y="25.07175" style="fill: #0072b2; stroke: #0072b2"/>
    </g>
   </g>
   <g id="PathCollection_2">
    <defs>
     <path id="m6509b67670" d="M 0 2.12132 
C 0.562581 2.12132 1.102195 1.897805 1.5 1.5 
C 1.897805 1.102195 2.12132 0.562581 2.12132 0 
C 2.12132 -0.562581 1.897805 -1.102195 1.5 -1.5 
C 1.102195 -1.897805 0.562581 -2.12132 0 -2.12132 
C -0.562581 -2.12132 -1.102195 -1.897805 -1.5 -1.5 
C -1.897805 -1.102195 -2.12132 -0.562581 -2.12132 0 
C -2.12132 0.562581 -1.897805 1.102195 -1.5 1.5 
C -1.102195 1.897805 -0.562581 2.12132 0 2.12132 
z
" style="stroke: #009e73"/>
    </defs>
    <g clip-path="url(#pd3adc47997)">
     <use xlink:href="#m6509b67670" x="46.334729" y="145.924796" style="fill: #009e73; stroke: #009e73"/>
     <use xlink:href="#m6509b67670" x="97.720797" y="108.70442" style="fill: #009e73; stroke: #009e73"/>
     <use xlink:href="#m6509b67670" x="166.235555" y="58.417311" style="fill: #009e73; stroke: #009e73"/>
    </g>
   </g>
   <g id="PathCollection_3">
    <defs>
     <path id="mf5411c0988" d="M 0 2.12132 
C 0.562581 2.12132 1.102195 1.897805 1.5 1.5 
C 1.897805 1.102195 2.12132 0.562581 2.12132 0 
C 2.12132 -0.562581 1.897805 -1.102195 1.5 -1.5 
C 1.102195 -1.897805 0.562581 -2.12132 0 -2.12132 
C -0.562581 -2.12132 -1.102195 -1.897805 -1.5 -1.5 
C -1.897805 -1.102195 -2.12132 -0.562581 -2.12132 0 
C -2.12132 0.562581 -1.897805 1.102195 -1.5 1.5 
C -1.102195 1.897805 -0.562581 2.12132 0 2.12132 
z
" style="stroke: #d55e00"/>
    </defs>
    <g clip-path="url(#pd3adc47997)">
     <use xlink:href="#mf5411c0988" x="46.334729" y="141.756611" style="fill: #d55e00; stroke: #d55e00"/>
     <use xlink:href="#mf5411c0988" x="97.720797" y="92.056073" style="fill: #d55e00; stroke: #d55e00"/>
     <use xlink:href="#mf5411c0988" x="166.235555" y="25.157246" style="fill: #d55e00; stroke: #d55e00"/>
    </g>
   </g>
   <g id="PathCollection_4">
    <defs>
     <path id="m535a677f63" d="M 0 2.12132 
C 0.562581 2.12132 1.102195 1.897805 1.5 1.5 
C 1.897805 1.102195 2.12132 0.562581 2.12132 0 
C 2.12132 -0.562581 1.897805 -1.102195 1.5 -1.5 
C 1.102195 -1.897805 0.562581 -2.12132 0 -2.12132 
C -0.562581 -2.12132 -1.102195 -1.897805 -1.5 -1.5 
C -1.897805 -1.102195 -2.12132 -0.562581 -2.12132 0 
C -2.12132 0.562581 -1.897805 1.102195 -1.5 1.5 
C -1.102195 1.897805 -0.562581 2.12132 0 2.12132 
z
" style="stroke: #cc79a7"/>
    </defs>
    <g clip-path="url(#pd3adc47997)">
     <use xlink:href="#m535a677f63" x="46.334729" y="143.834501" style="fill: #cc79a7; stroke: #cc79a7"/>
     <use xlink:href="#m535a677f63" x="97.720797" y="100.343575" style="fill: #cc79a7; stroke: #cc79a7"/>
     <use xlink:href="#m535a677f63" x="166.235555" y="41.768964" style="fill: #cc79a7; stroke: #cc79a7"/>
    </g>
   </g>
   <g id="text_16">
    <text style="font-size: 8px; font-family: 'Arial', 'Helvetica', 'DejaVu Sans', sans-serif; text-anchor: middle" x="106.285142" y="13.02375" transform="rotate(-0 106.285142 13.02375)">P5a softmax: meas (dots) vs fit (line)</text>
   </g>
   <g id="legend_1">
    <g id="line2d_18">
     <path d="M 44.839688 25.352656 
L 49.839688 25.352656 
L 54.839688 25.352656 
" style="fill: none; stroke: #0072b2; stroke-linecap: square"/>
    </g>
    <g id="text_17">
     <text style="font-size: 5px; font-family: 'Arial', 'Helvetica', 'DejaVu Sans', sans-serif; text-anchor: start" x="58.839688" y="27.102656" transform="rotate(-0 58.839688 27.102656)">1b</text>
    </g>
    <g id="line2d_19">
     <path d="M 44.839688 32.425312 
L 49.839688 32.425312 
L 54.839688 32.425312 
" style="fill: none; stroke: #009e73; stroke-linecap: square"/>
    </g>
    <g id="text_18">
     <text style="font-size: 5px; font-family: 'Arial', 'Helvetica', 'DejaVu Sans', sans-serif; text-anchor: start" x="58.839688" y="34.175312" transform="rotate(-0 58.839688 34.175312)">3b</text>
    </g>
    <g id="line2d_20">
     <path d="M 44.839688 39.497969 
L 49.839688 39.497969 
L 54.839688 39.497969 
" style="fill: none; stroke: #d55e00; stroke-linecap: square"/>
    </g>
    <g id="text_19">
     <text style="font-size: 5px; font-family: 'Arial', 'Helvetica', 'DejaVu Sans', sans-serif; text-anchor: start" x="58.839688" y="41.247969" transform="rotate(-0 58.839688 41.247969)">8b</text>
    </g>
    <g id="line2d_21">
     <path d="M 44.839688 46.570625 
L 49.839688 46.570625 
L 54.839688 46.570625 
" style="fill: none; stroke: #cc79a7; stroke-linecap: square"/>
    </g>
    <g id="text_20">
     <text style="font-size: 5px; font-family: 'Arial', 'Helvetica', 'DejaVu Sans', sans-serif; text-anchor: start" x="58.839688" y="48.320625" transform="rotate(-0 58.839688 48.320625)">7b</text>
    </g>
   </g>
  </g>
  <g id="axes_2">
   <g id="patch_5">
    <path d="M 198.608778 152.07975 
L 330.499687 152.07975 
L 330.499687 19.02375 
L 198.608778 19.02375 
z
" style="fill: #ffffff"/>
   </g>
   <g id="patch_6">
    <path d="M 204.60382 152.07975 
L 224.587291 152.07975 
L 224.587291 131.865395 
L 204.60382 131.865395 
z
" clip-path="url(#p2745247130)" style="fill: #56b4e9"/>
   </g>
   <g id="patch_7">
    <path d="M 229.583159 152.07975 
L 249.56663 152.07975 
L 249.56663 133.516386 
L 229.583159 133.516386 
z
" clip-path="url(#p2745247130)" style="fill: #56b4e9"/>
   </g>
   <g id="patch_8">
    <path d="M 254.562497 152.07975 
L 274.545968 152.07975 
L 274.545968 146.7166 
L 254.562497 146.7166 
z
" clip-path="url(#p2745247130)" style="fill: #56b4e9"/>
   </g>
   <g id="patch_9">
    <path d="M 279.541836 152.07975 
L 299.525307 152.07975 
L 299.525307 80.356785 
L 279.541836 80.356785 
z
" clip-path="url(#p2745247130)" style="fill: #56b4e9"/>
   </g>
   <g id="patch_10">
    <path d="M 304.521175 152.07975 
L 324.504646 152.07975 
L 324.504646 25.35975 
L 304.521175 25.35975 
z
" clip-path="url(#p2745247130)" style="fill: #56b4e9"/>
   </g>
   <g id="matplotlib.axis_3">
    <g id="xtick_6">
     <g id="line2d_22">
      <g>
       <use xlink:href="#m90c863af86" x="214.595555" y="152.07975" style="stroke: #000000; stroke-width: 0.8"/>
      </g>
     </g>
     <g id="text_21">
      <text style="font-size: 5px; font-family: 'Arial', 'Helvetica', 'DejaVu Sans', sans-serif" transform="translate(210.009857 172.609796) rotate(-45)">rmsnor</text>
     </g>
    </g>
    <g id="xtick_7">
     <g id="line2d_23">
      <g>
       <use xlink:href="#m90c863af86" x="239.574894" y="152.07975" style="stroke: #000000; stroke-width: 0.8"/>
      </g>
     </g>
     <g id="text_22">
      <text style="font-size: 5px; font-family: 'Arial', 'Helvetica', 'DejaVu Sans', sans-serif" transform="translate(234.985053 172.618083) rotate(-45)">rope_a</text>
     </g>
    </g>
    <g id="xtick_8">
     <g id="line2d_24">
      <g>
       <use xlink:href="#m90c863af86" x="264.554233" y="152.07975" style="stroke: #000000; stroke-width: 0.8"/>
      </g>
     </g>
     <g id="text_23">
      <text style="font-size: 5px; font-family: 'Arial', 'Helvetica', 'DejaVu Sans', sans-serif" transform="translate(260.653821 171.239225) rotate(-45)">residu</text>
     </g>
    </g>
    <g id="xtick_9">
     <g id="line2d_25">
      <g>
       <use xlink:href="#m90c863af86" x="289.533572" y="152.07975" style="stroke: #000000; stroke-width: 0.8"/>
      </g>
     </g>
     <g id="text_24">
      <text style="font-size: 5px; font-family: 'Arial', 'Helvetica', 'DejaVu Sans', sans-serif" transform="translate(285.514664 171.434784) rotate(-45)">swiglu</text>
     </g>
    </g>
    <g id="xtick_10">
     <g id="line2d_26">
      <g>
       <use xlink:href="#m90c863af86" x="314.512911" y="152.07975" style="stroke: #000000; stroke-width: 0.8"/>
      </g>
     </g>
     <g id="text_25">
      <text style="font-size: 5px; font-family: 'Arial', 'Helvetica', 'DejaVu Sans', sans-serif" transform="translate(310.318884 171.826455) rotate(-45)">sampli</text>
     </g>
    </g>
   </g>
   <g id="matplotlib.axis_4">
    <g id="ytick_9">
     <g id="line2d_27">
      <g>
       <use xlink:href="#m63412f0416" x="198.608778" y="152.07975" style="stroke: #000000; stroke-width: 0.8"/>
      </g>
     </g>
     <g id="text_26">
      <text style="font-size: 7px; font-family: 'Arial', 'Helvetica', 'DejaVu Sans', sans-serif; text-anchor: end" x="191.608778" y="154.584984" transform="rotate(-0 191.608778 154.584984)">0</text>
     </g>
    </g>
    <g id="ytick_10">
     <g id="line2d_28">
      <g>
       <use xlink:href="#m63412f0416" x="198.608778" y="126.363377" style="stroke: #000000; stroke-width: 0.8"/>
      </g>
     </g>
     <g id="text_27">
      <text style="font-size: 7px; font-family: 'Arial', 'Helvetica', 'DejaVu Sans', sans-serif; text-anchor: end" x="191.608778" y="128.868611" transform="rotate(-0 191.608778 128.868611)">200</text>
     </g>
    </g>
    <g id="ytick_11">
     <g id="line2d_29">
      <g>
       <use xlink:href="#m63412f0416" x="198.608778" y="100.647004" style="stroke: #000000; stroke-width: 0.8"/>
      </g>
     </g>
     <g id="text_28">
      <text style="font-size: 7px; font-family: 'Arial', 'Helvetica', 'DejaVu Sans', sans-serif; text-anchor: end" x="191.608778" y="103.152238" transform="rotate(-0 191.608778 103.152238)">400</text>
     </g>
    </g>
    <g id="ytick_12">
     <g id="line2d_30">
      <g>
       <use xlink:href="#m63412f0416" x="198.608778" y="74.930631" style="stroke: #000000; stroke-width: 0.8"/>
      </g>
     </g>
     <g id="text_29">
      <text style="font-size: 7px; font-family: 'Arial', 'Helvetica', 'DejaVu Sans', sans-serif; text-anchor: end" x="191.608778" y="77.435865" transform="rotate(-0 191.608778 77.435865)">600</text>
     </g>
    </g>
    <g id="ytick_13">
     <g id="line2d_31">
      <g>
       <use xlink:href="#m63412f0416" x="198.608778" y="49.214258" style="stroke: #000000; stroke-width: 0.8"/>
      </g>
     </g>
     <g id="text_30">
      <text style="font-size: 7px; font-family: 'Arial', 'Helvetica', 'DejaVu Sans', sans-serif; text-anchor: end" x="191.608778" y="51.719492" transform="rotate(-0 191.608778 51.719492)">800</text>
     </g>
    </g>
    <g id="ytick_14">
     <g id="line2d_32">
      <g>
       <use xlink:href="#m63412f0416" x="198.608778" y="23.497885" style="stroke: #000000; stroke-width: 0.8"/>
      </g>
     </g>
     <g id="text_31">
      <text style="font-size: 7px; font-family: 'Arial', 'Helvetica', 'DejaVu Sans', sans-serif; text-anchor: end" x="191.608778" y="26.003119" transform="rotate(-0 191.608778 26.003119)">1000</text>
     </g>
    </g>
    <g id="text_32">
     <text style="font-size: 7px; font-family: 'Arial', 'Helvetica', 'DejaVu Sans', sans-serif; text-anchor: middle" x="170.564872" y="85.55175" transform="rotate(-90 170.564872 85.55175)">us (8B, fp16 upper bound)</text>
    </g>
   </g>
   <g id="patch_11">
    <path d="M 198.608778 152.07975 
L 198.608778 19.02375 
" style="fill: none; stroke: #000000; stroke-width: 0.8; stroke-linejoin: miter; stroke-linecap: square"/>
   </g>
   <g id="patch_12">
    <path d="M 198.608778 152.07975 
L 330.499687 152.07975 
" style="fill: none; stroke: #000000; stroke-width: 0.8; stroke-linejoin: miter; stroke-linecap: square"/>
   </g>
   <g id="text_33">
    <text style="font-size: 8px; font-family: 'Arial', 'Helvetica', 'DejaVu Sans', sans-serif; text-anchor: middle" x="264.554233" y="13.02375" transform="rotate(-0 264.554233 13.02375)">P5b non-GEMM ops</text>
   </g>
  </g>
 </g>
 <defs>
  <clipPath id="pd3adc47997">
   <rect x="40.339688" y="19.02375" width="131.890909" height="133.056"/>
  </clipPath>
  <clipPath id="p2745247130">
   <rect x="198.608778" y="19.02375" width="131.890909" height="133.056"/>
  </clipPath>
 </defs>
</svg>
